<svg xmlns="http://www.w3.org/2000/svg" data-name="Layer 1" viewBox="0 0 450 250">
    <rect width="450" height="250" fill="none" />
    <path fill="#15181a"
        d="M206.53,81c5.58-.12,10.23-.2,14.65-.24l13.18-.11,13-.07,12.95,0,52.21.12,52.76.1c17.62.05,35.27,0,52.91,0l-.07.56h0l-42-11.12a.29.29,0,0,1-.21-.26h0a25.71,25.71,0,0,0-5.51-12.44,22,22,0,0,0-5.14-4.52A24.39,24.39,0,0,0,359,50.14a28.67,28.67,0,0,0-13.68-.58,29,29,0,0,0-12.41,5.79h0a.29.29,0,0,1-.4,0,.25.25,0,0,1-.06-.14h0A28.14,28.14,0,0,0,322,38.73,26.09,26.09,0,0,0,313,34.52a37.47,37.47,0,0,0-9.92-1.1,36.14,36.14,0,0,0-9.88,1.31,23.82,23.82,0,0,0-8.79,4.52,24.83,24.83,0,0,0-8.6,17.41v0a.29.29,0,0,1-.31.26.32.32,0,0,1-.21-.12h0a20.29,20.29,0,0,0-9.46-7,19.53,19.53,0,0,0-11.77-.2,17.34,17.34,0,0,0-5.42,2.44,15.54,15.54,0,0,0-4.17,4.23,21.1,21.1,0,0,0-3.31,11.35h0v0a.16.16,0,0,1-.05.11,29.28,29.28,0,0,1-3.85,2.74c-1.34.83-2.73,1.57-4.12,2.29a78.55,78.55,0,0,1-8.68,3.66c-3,1.09-6,1.94-9,2.76-1.52.39-3.05.73-4.58,1.1S208.1,80.75,206.53,81ZM206,81c1.49-.41,3.2-.92,4.83-1.2s3-.69,4.57-1.07c3-.79,6-1.63,9-2.69A76.86,76.86,0,0,0,233,72.46c1.4-.71,2.78-1.43,4.11-2.25a29,29,0,0,0,3.82-2.67l-.06.13h0a21.35,21.35,0,0,1,3.32-11.58,15.75,15.75,0,0,1,4.25-4.36A18.09,18.09,0,0,1,254,49.19a20.09,20.09,0,0,1,12.06.16,20.78,20.78,0,0,1,9.76,7.15h0l-.52.15a26.76,26.76,0,0,1,2.44-9.91,22.88,22.88,0,0,1,6.18-8.15A24.78,24.78,0,0,1,293,33.85a37,37,0,0,1,10.14-1.41,38.88,38.88,0,0,1,10.18,1.08,26.53,26.53,0,0,1,9.31,4.34,25.82,25.82,0,0,1,6.87,7.63A27.57,27.57,0,0,1,333,55.1h0l-.47-.17a27.22,27.22,0,0,1,6-3.79,29.18,29.18,0,0,1,20.72-1.72,25.48,25.48,0,0,1,6.49,2.83,22.69,22.69,0,0,1,5.35,4.66A23.76,23.76,0,0,1,374.72,63a23.48,23.48,0,0,1,1.79,6.85h0l-.21-.25,42,11.13h0a.28.28,0,0,1,.21.34.31.31,0,0,1-.28.22c-17.69,0-35.36-.1-53.07,0l-53.22.1-53.77.12H244.6l-13.47-.07-13.32-.12C213.4,81.21,209.22,81.12,206,81Z" />
    <path fill="#c0bdfe"
        d="M23.76,120.71,311.12,120l-45.51-16.44s-4.76-14.24-18.32-22.3c-18.08-10.74-37.53-3.61-37.53-3.61s-12-21.39-32.34-22.88c-42.81-3.14-44.23,30.86-44.23,30.86S121.82,58.78,97.43,68.4c-23.83,9.4-19.24,36.83-19.24,36.83S58.94,114.38,23.76,120.71Z" />
    <path fill="#15181a"
        d="M18,126.72l19.36-.28,17.89-.16,35.4-.17,71.06,0,71.6-.06,71.77-.22-.07.56h0l-61.95-15a.29.29,0,0,1-.22-.24h0a39.9,39.9,0,0,0-5.08-13.72,24.89,24.89,0,0,0-4.69-5.59,27,27,0,0,0-6.18-3.9,40.67,40.67,0,0,0-14.25-3.51,57.14,57.14,0,0,0-14.72.79h0a.29.29,0,0,1-.33-.19h0A41.12,41.12,0,0,0,195,79.42a45.58,45.58,0,0,0-3.33-5.14,35.62,35.62,0,0,0-8.69-8.46c-6.71-4.76-15.36-5.34-23.44-5a39.13,39.13,0,0,0-11.93,2.49,29.86,29.86,0,0,0-10.18,6.57,35.89,35.89,0,0,0-9.94,21.86h0a.3.3,0,0,1-.31.26.28.28,0,0,1-.24-.18h0A40.59,40.59,0,0,0,121,82.5a30.44,30.44,0,0,0-8.44-7.06A22.48,22.48,0,0,0,102,72.6a27.52,27.52,0,0,0-10.77,2.17,30.49,30.49,0,0,0-9.35,5.84,28.19,28.19,0,0,0-6.46,8.91,36.11,36.11,0,0,0-3,10.64,42.37,42.37,0,0,0,0,11.08h0a.17.17,0,0,1-.09.17c-4.32,2-8.76,3.59-13.24,5.13s-9,2.9-13.56,4.18-9.15,2.41-13.76,3.46c-2.3.54-4.62,1-6.94,1.5-1.16.24-2.22.43-3.32.59Zm-.56,0L21,125.9c1.22-.29,2.49-.51,3.64-.75,2.31-.49,4.63-.93,6.93-1.47q6.92-1.53,13.75-3.4c4.55-1.25,9.08-2.6,13.56-4.11s8.92-3.12,13.22-5l-.09.17h0a42.27,42.27,0,0,1,0-11.18,36.28,36.28,0,0,1,3-10.75,28.7,28.7,0,0,1,6.53-9.06A31,31,0,0,1,91,74.36,28,28,0,0,1,102,72.13,22.92,22.92,0,0,1,112.75,75a31,31,0,0,1,8.6,7.15,41.38,41.38,0,0,1,6.07,9.43h0l-.55.1a38.44,38.44,0,0,1,3-12.07,32.8,32.8,0,0,1,6.9-10.36,30.87,30.87,0,0,1,10.45-6.81,40.19,40.19,0,0,1,12.2-2.6,60.2,60.2,0,0,1,12.44.57,28.29,28.29,0,0,1,11.66,4.51,35.33,35.33,0,0,1,8.9,8.77,42.28,42.28,0,0,1,5.69,11.08h0l-.33-.19a58.2,58.2,0,0,1,14.9-.88,41.57,41.57,0,0,1,14.49,3.52,27.76,27.76,0,0,1,6.37,4,25.18,25.18,0,0,1,4.87,5.73,32.9,32.9,0,0,1,3.24,6.77A34.41,34.41,0,0,1,243.4,111h0l-.21-.24,61.95,15h0a.28.28,0,0,1-.06.56l-71.92.12-72.08.28L88.47,127H52L34,127l-8.7-.07Z" />
    <path fill="#A294FE"
        d="M233.9,183.85v11.78h-8.61V212H210.23l-.11-16.36H179V185.16l21.16-48.32,13.09,4.91-18.22,42.1h15.27l1.64-18h13.31v18Z" />
    <path fill="#A294FE"
        d="M288.11,146.93Q295,156.8,295,175.34t-6.93,28.47q-6.93,9.93-20.13,9.93t-20.07-9.93Q241,193.88,241,175.34t6.87-28.41q6.88-9.87,20.07-9.87T288.11,146.93Zm-26.5,4.25q-2.4,2.56-3.55,8.4a85.94,85.94,0,0,0-1.14,15.76,85.94,85.94,0,0,0,1.14,15.76q1.15,5.84,3.55,8.4a8.25,8.25,0,0,0,6.32,2.56,8.36,8.36,0,0,0,6.33-2.5q2.4-2.52,3.6-8.35a82.5,82.5,0,0,0,1.2-15.87,83.27,83.27,0,0,0-1.2-16q-1.2-5.84-3.6-8.29a8.47,8.47,0,0,0-6.33-2.45A8.25,8.25,0,0,0,261.61,151.18Z" />
    <path fill="#A294FE"
        d="M337,139.51a18.78,18.78,0,0,1,8.18,6.71,17,17,0,0,1,2.78,9.49,16.37,16.37,0,0,1-3.82,11.07,20.89,20.89,0,0,1-10.58,6.27,19.62,19.62,0,0,1,12.11,5.35q4.68,4.57,4.69,12.76a21.14,21.14,0,0,1-3.22,11.45,22.15,22.15,0,0,1-9.44,8.13,33.54,33.54,0,0,1-14.72,3q-15.6,0-24.43-10.91l8.39-8.07a25.66,25.66,0,0,0,7.31,5.34,18.79,18.79,0,0,0,7.86,1.64q5.67,0,9-3.06c2.22-2,3.33-4.87,3.33-8.5q0-5.9-3.16-8.51t-9.49-2.62h-6l1.85-10.91h4a11.86,11.86,0,0,0,8.18-2.72,9.71,9.71,0,0,0,3.05-7.64,8.29,8.29,0,0,0-2.78-6.65,11.21,11.21,0,0,0-7.58-2.4,18.93,18.93,0,0,0-7.63,1.52,23.61,23.61,0,0,0-6.87,4.8l-7.75-8.4a33.51,33.51,0,0,1,23.78-9.59A31,31,0,0,1,337,139.51Z" />
    <path fill="#15181a"
        d="M221.74,215.92H206.69a.38.38,0,0,1-.38-.38l-.11-16H175.49a.38.38,0,0,1-.38-.38V188.7a.4.4,0,0,1,0-.15l21.17-48.32a.38.38,0,0,1,.48-.2l13.09,4.91a.37.37,0,0,1,.21.2.39.39,0,0,1,0,.3L192.1,187h14.35l1.6-17.66a.39.39,0,0,1,.38-.34h13.31a.38.38,0,0,1,.38.38V187h8.24a.38.38,0,0,1,.38.38v11.77a.38.38,0,0,1-.38.38h-8.24v16A.38.38,0,0,1,221.74,215.92Zm-14.68-.76h14.3v-16a.38.38,0,0,1,.38-.38H230v-11h-8.24a.38.38,0,0,1-.38-.38V169.78H208.78l-1.61,17.65a.37.37,0,0,1-.37.35H191.53a.39.39,0,0,1-.35-.54l18.06-41.73-12.38-4.64-21,47.91v10h30.71a.38.38,0,0,1,.38.38Z" />
    <path fill="#15181a"
        d="M264.39,217.66c-8.89,0-15.75-3.39-20.39-10.09s-6.93-16.3-6.93-28.68,2.33-22,6.94-28.63,11.49-10,20.38-10,15.85,3.38,20.49,10h0c4.6,6.61,6.94,16.24,6.94,28.63s-2.35,22-7,28.68S273.28,217.66,264.39,217.66Zm0-76.68c-8.63,0-15.27,3.27-19.76,9.71s-6.8,16-6.8,28.2,2.28,21.73,6.8,28.25,11.13,9.76,19.76,9.76,15.29-3.28,19.81-9.76,6.86-16,6.86-28.25-2.29-21.71-6.8-28.2h0C279.77,144.25,273.09,141,264.39,141Zm0,65a8.67,8.67,0,0,1-6.61-2.68c-1.64-1.75-2.86-4.64-3.64-8.59A86.72,86.72,0,0,1,253,178.89a86.92,86.92,0,0,1,1.15-15.84c.78-3.94,2-6.83,3.64-8.58h0a8.68,8.68,0,0,1,6.61-2.69,8.88,8.88,0,0,1,6.6,2.57c1.64,1.68,2.88,4.54,3.7,8.48a84.27,84.27,0,0,1,1.2,16.06,83.38,83.38,0,0,1-1.2,15.94c-.82,3.95-2.06,6.82-3.7,8.54A8.77,8.77,0,0,1,264.39,206Zm0-53.45a7.94,7.94,0,0,0-6.05,2.45h0c-1.54,1.64-2.7,4.41-3.45,8.21a85.24,85.24,0,0,0-1.14,15.69,85.24,85.24,0,0,0,1.14,15.69c.75,3.8,1.91,6.56,3.45,8.21a7.92,7.92,0,0,0,6.05,2.44,8,8,0,0,0,6.05-2.39c1.54-1.61,2.72-4.36,3.5-8.16a82.67,82.67,0,0,0,1.19-15.79A83.49,83.49,0,0,0,273.94,163c-.78-3.8-2-6.52-3.5-8.1A8.12,8.12,0,0,0,264.39,152.54Zm-6.33,2.19h0Z" />
    <path fill="#15181a"
        d="M319.47,217.66c-10.47,0-18.79-3.72-24.73-11a.37.37,0,0,1,0-.51l8.39-8.07a.39.39,0,0,1,.54,0,25.16,25.16,0,0,0,7.19,5.27,18.52,18.52,0,0,0,7.7,1.6c3.66,0,6.61-1,8.74-3s3.21-4.72,3.21-8.23c0-3.79-1-6.55-3-8.21s-5.14-2.53-9.25-2.53h-6a.38.38,0,0,1-.37-.45l1.85-10.91a.38.38,0,0,1,.38-.31h4a11.53,11.53,0,0,0,7.93-2.63,9.4,9.4,0,0,0,2.93-7.35,8,8,0,0,0-2.65-6.37,10.91,10.91,0,0,0-7.33-2.31,18.62,18.62,0,0,0-7.49,1.5,23.3,23.3,0,0,0-6.76,4.72.33.33,0,0,1-.27.11.4.4,0,0,1-.27-.12l-7.75-8.4a.39.39,0,0,1,0-.54,34.05,34.05,0,0,1,24-9.7,31.65,31.65,0,0,1,13.09,2.49h0a19.14,19.14,0,0,1,8.34,6.85,17.43,17.43,0,0,1,2.84,9.69,16.74,16.74,0,0,1-3.91,11.32,20.46,20.46,0,0,1-9.11,5.88,19.58,19.58,0,0,1,10.62,5.22c3.18,3.11,4.8,7.5,4.8,13A21.63,21.63,0,0,1,344,206.36a22.68,22.68,0,0,1-9.6,8.26A34.05,34.05,0,0,1,319.47,217.66Zm-23.91-11.25c5.77,7,13.81,10.49,23.91,10.49a33.27,33.27,0,0,0,14.56-3,21.91,21.91,0,0,0,9.28-8,20.78,20.78,0,0,0,3.16-11.25c0-5.32-1.54-9.52-4.58-12.49A19.35,19.35,0,0,0,330,177a.37.37,0,0,1-.34-.34.39.39,0,0,1,.28-.4,20.63,20.63,0,0,0,10.4-6.15,16.08,16.08,0,0,0,3.72-10.83,16.62,16.62,0,0,0-2.72-9.28,18.37,18.37,0,0,0-8-6.57h0A30.92,30.92,0,0,0,320.56,141a33.22,33.22,0,0,0-23.24,9.24l7.23,7.84a23.69,23.69,0,0,1,6.7-4.61,19.35,19.35,0,0,1,7.79-1.56,11.67,11.67,0,0,1,7.83,2.49,8.75,8.75,0,0,1,2.91,7,10.09,10.09,0,0,1-3.18,7.91,12.23,12.23,0,0,1-8.44,2.83h-3.71l-1.73,10.15h5.55c4.29,0,7.56.91,9.73,2.7s3.31,4.78,3.31,8.8a11.42,11.42,0,0,1-3.45,8.79c-2.29,2.09-5.4,3.15-9.26,3.15a19.18,19.18,0,0,1-8-1.67,25.4,25.4,0,0,1-7.16-5.16Z" />
    <path fill="#c45465"
        d="M111.22,139.44h48a7.66,7.66,0,0,1,7.66,7.66v18.48a18.68,18.68,0,0,1-18.68,18.68h-26a18.68,18.68,0,0,1-18.68-18.68V147.11A7.66,7.66,0,0,1,111.22,139.44Z" />
    <path fill="#c45465"
        d="M135.24,166a24.13,24.13,0,0,1-24.1-24.11V126.41H121.7v15.46a13.54,13.54,0,1,0,27.08,0V125a13.54,13.54,0,0,0-21.46-11,5.28,5.28,0,1,1-6.19-8.55,23.89,23.89,0,0,1,14.11-4.57A24.13,24.13,0,0,1,159.35,125v16.84A24.14,24.14,0,0,1,135.24,166Z" />
    <polygon fill="#A294FE" points="401.66 112.96 395.79 123.14 407.54 123.14 401.66 112.96" />
    <polygon fill="#A294FE" points="378.81 112.96 372.94 123.14 384.68 123.14 378.81 112.96" />
    <polygon fill="#A294FE" points="390.24 92.98 384.36 103.15 396.11 103.15 390.24 92.98" />
    <path fill="#15181a"
        d="M130.35,53.26H118.6a.36.36,0,0,1-.32-.19.37.37,0,0,1,0-.38l5.87-10.17a.39.39,0,0,1,.66,0l5.87,10.17a.37.37,0,0,1,0,.38A.37.37,0,0,1,130.35,53.26Zm-11.09-.76h10.43l-5.21-9Z" />
    <path fill="#15181a"
        d="M63.65,176.09H51.9a.4.4,0,0,1-.33-.19.37.37,0,0,1,0-.38l5.87-10.18a.4.4,0,0,1,.66,0L64,175.52a.42.42,0,0,1,0,.38A.41.41,0,0,1,63.65,176.09Zm-11.09-.76H63l-5.22-9Z" />
</svg>