<svg xmlns="http://www.w3.org/2000/svg" enable-background="new 0 0 1364 960" viewBox="0 0 1364 960">
    <path fill="#E1DEFF"
        d="M587.86,363.075l-3.63-1.431c0.821-5.114,0.849-10.248,0.143-15.227l4.196-1.824  c6.269-2.725,9.143-10.016,6.418-16.286c-2.725-6.269-10.016-9.143-16.286-6.418l-3.584,1.558c-2.958-4.1-6.53-7.768-10.657-10.868  c-0.001-0.001-0.003-0.002-0.004-0.003l1.677-4.257c2.506-6.36-0.618-13.548-6.978-16.054c-6.36-2.506-13.548,0.618-16.054,6.978  l-1.431,3.631c-5.114-0.821-10.248-0.85-15.227-0.144l-1.824-4.196c-2.725-6.269-10.016-9.143-16.286-6.418  c-6.269,2.725-9.143,10.016-6.418,16.286l1.557,3.582c-4.1,2.958-7.77,6.531-10.87,10.658c-0.001,0.001-0.001,0.002-0.002,0.003  l-4.255-1.677c-6.36-2.506-13.547,0.618-16.054,6.978c-2.506,6.36,0.618,13.548,6.977,16.054l3.629,1.43  c-0.821,5.115-0.85,10.25-0.144,15.229l-4.193,1.822c-6.27,2.725-9.143,10.016-6.418,16.286c2.725,6.27,10.016,9.143,16.286,6.418  l3.571-1.552c0.001,0.001,0.001,0.002,0.002,0.003c2.962,4.089,6.545,7.763,10.667,10.874l-1.673,4.245  c-2.507,6.36,0.617,13.548,6.977,16.054c6.36,2.506,13.548-0.618,16.054-6.978l1.43-3.628c5.115,0.821,10.25,0.85,15.229,0.144  l1.823,4.193c2.725,6.269,10.016,9.143,16.286,6.418c6.269-2.725,9.143-10.016,6.418-16.286l-1.553-3.572c0,0,0.001,0,0.001,0  c4.09-2.962,7.763-6.545,10.875-10.668l4.247,1.674c6.36,2.507,13.548-0.618,16.054-6.977  C597.344,372.769,594.22,365.582,587.86,363.075z M567.853,367.052c-7.461,18.932-28.869,28.237-47.801,20.776  c-18.932-7.461-28.237-28.869-20.776-47.801c7.465-18.943,28.869-28.237,47.801-20.776  C566.008,326.712,575.318,348.109,567.853,367.052z" />
    <path fill="#E1DEFF"
        d="M511.893,344.999c-4.717,11.969,1.162,25.495,13.131,30.211c11.969,4.717,25.506-1.158,30.222-13.127  c4.717-11.969-1.169-25.51-13.137-30.226C530.14,327.141,516.61,333.031,511.893,344.999z" />
    <path fill="#E1DEFF"
        d="M476.824,253.172l-2.76,0.657c-1.638-3.391-3.756-6.464-6.248-9.139l1.744-2.833  c2.605-4.232,1.286-9.775-2.947-12.38c-4.232-2.605-9.775-1.286-12.38,2.947l-1.489,2.419c-3.469-1.214-7.125-1.916-10.874-2.048  c-0.001,0-0.002,0-0.004,0l-0.77-3.236c-1.151-4.835-6.003-7.821-10.838-6.67c-4.835,1.151-7.821,6.003-6.67,10.837l0.657,2.76  c-3.391,1.637-6.464,3.755-9.139,6.247l-2.833-1.743c-4.232-2.605-9.775-1.286-12.38,2.947c-2.605,4.232-1.286,9.775,2.947,12.38  l2.418,1.489c-1.214,3.469-1.917,7.126-2.049,10.876c0,0.001,0,0.002,0,0.003l-3.234,0.77c-4.835,1.151-7.821,6.003-6.67,10.837  c1.151,4.835,6.003,7.821,10.837,6.67l2.758-0.657c1.638,3.391,3.756,6.465,6.248,9.141l-1.742,2.831  c-2.605,4.232-1.286,9.775,2.947,12.38c4.232,2.605,9.775,1.286,12.38-2.947l1.484-2.41c0.001,0,0.002,0.001,0.002,0.001  c3.467,1.206,7.131,1.907,10.883,2.047l0.768,3.227c1.151,4.835,6.003,7.821,10.837,6.67c4.835-1.151,7.821-6.003,6.67-10.837  l-0.656-2.758c3.391-1.638,6.465-3.757,9.14-6.248l2.831,1.742c4.232,2.605,9.775,1.286,12.38-2.947  c2.605-4.232,1.286-9.775-2.947-12.38l-2.412-1.484c0,0,0,0,0-0.001c1.206-3.467,1.907-7.132,2.047-10.884l3.228-0.768  c4.835-1.151,7.821-6.003,6.67-10.837C486.511,255.008,481.659,252.021,476.824,253.172z M466.548,263.864  c3.425,14.392-5.47,28.843-19.861,32.269c-14.391,3.425-28.843-5.47-32.269-19.861c-3.427-14.4,5.47-28.843,19.861-32.269  C448.671,240.578,463.121,249.465,466.548,263.864z" />
    <path fill="#E1DEFF"
        d="M424.01,273.989c2.166,9.098,11.297,14.718,20.394,12.553c9.098-2.165,14.727-11.298,12.561-20.396  c-2.165-9.098-11.307-14.724-20.405-12.559C427.463,255.752,421.844,264.891,424.01,273.989z" />
    <path fill="#E1DEFF"
        d="M1133.548,342.982l-3.556,0.951c-2.246-4.339-5.104-8.25-8.433-11.631l2.16-3.737  c3.227-5.583,1.317-12.726-4.267-15.953c-5.584-3.227-12.726-1.316-15.953,4.267l-1.844,3.192c-4.543-1.45-9.311-2.229-14.179-2.266  c-0.002,0-0.003,0-0.005,0l-1.115-4.17c-1.666-6.23-8.068-9.93-14.298-8.263c-6.23,1.666-9.93,8.068-8.263,14.298l0.951,3.557  c-4.339,2.246-8.25,5.104-11.631,8.432l-3.737-2.16c-5.584-3.227-12.726-1.317-15.953,4.267c-3.227,5.584-1.317,12.726,4.267,15.953  l3.191,1.844c-1.451,4.544-2.23,9.312-2.267,14.182c0,0.001,0,0.003,0,0.004l-4.168,1.115c-6.23,1.666-9.93,8.068-8.263,14.298  c1.666,6.23,8.068,9.93,14.298,8.263l3.554-0.951c2.246,4.34,5.105,8.251,8.433,11.633l-2.158,3.735  c-3.227,5.584-1.317,12.726,4.267,15.953c5.584,3.227,12.726,1.317,15.953-4.267l1.838-3.18c0.001,0,0.002,0.001,0.003,0.001  c4.541,1.44,9.319,2.217,14.191,2.265l1.112,4.158c1.667,6.23,8.068,9.93,14.298,8.263c6.23-1.666,9.93-8.068,8.263-14.298  l-0.95-3.554c4.34-2.246,8.251-5.105,11.632-8.434l3.735,2.158c5.584,3.227,12.726,1.316,15.953-4.267  c3.227-5.583,1.316-12.726-4.267-15.953l-3.182-1.839c0,0,0,0,0-0.001c1.44-4.541,2.217-9.32,2.265-14.192l4.16-1.113  c6.23-1.667,9.93-8.068,8.263-14.298C1146.179,345.015,1139.778,341.316,1133.548,342.982z M1120.603,357.221  c4.96,18.545-6.059,37.612-24.604,42.572s-37.612-6.059-42.572-24.604c-4.963-18.556,6.059-37.612,24.604-42.572  C1096.576,327.657,1115.639,338.666,1120.603,357.221z" />
    <path fill="#E1DEFF"
        d="M1065.786,371.884c3.136,11.724,15.182,18.686,26.906,15.55c11.724-3.136,18.697-15.185,15.561-26.909  c-3.136-11.724-15.196-18.694-26.92-15.558C1069.609,348.102,1062.65,360.16,1065.786,371.884z" />
    <path fill="#EAE8FF"
        d="M1295.691,782.573H77.3c-22.063,0.916-52.16,7.569-53.039,13.431c-0.998,6.653,32.457,9.153,57.775,9.486  c55.449,0.729,110.899,1.459,166.348,2.188c5.085,0.067,10.408,0.152,14.766,0.844c12.07,1.916,8.156,7.127-2.921,9.421  c-11.077,2.293-25.903,2.763-39.173,4.018c-13.269,1.256-26.828,4.083-25.959,7.78c1.181,5.03,25.669,6.81,44.814,7.151  c79.786,1.421,160.006,1.157,239.631-0.788c33.56-0.82,71.698-1.565,96.523,4.423c7.165,1.728,12.731,3.938,20.925,5.316  c63.394,10.659,168.971,3.619,237.328,4.426c72.132,0.851,145.759,1.659,215.185-3.551c19.361-1.453,40.417-3.926,47.068-8.918  c7.069-5.305-5.162-10.873-14.543-15.925c-9.381-5.052-14.934-11.946,1.213-15.635c8.574-1.958,20.756-2.316,32.113-2.408  c56.711-0.462,116.373,3.32,168.51-2.559C1311.88,798.114,1310.072,789.635,1295.691,782.573z" />
    <path fill="#A294FE"
        d="M250.236,703.86H22.84V601.196l227.396-270.3H359.03v276.122h56.389v96.842H359.03v83.971H250.236V703.86z   M250.236,607.018V465.629L130.083,607.018H250.236z" />
    <rect width="23.401" height="96.842" x="392.018" y="607.018" fill="#7767E0" />
    <rect width="23.401" height="276.122" x="335.629" y="330.895" fill="#7767E0" />
    <polygon fill="#7767E0"
        points="130.083 607.018 250.236 468.957 250.236 441.419 106.682 607.018" />
    <rect width="23.401" height="83.971" x="335.629" y="703.86" fill="#7767E0" />
    <path fill="#A294FE"
        d="M1171.657,703.86H944.262V601.196l227.396-270.3h108.794v276.122h56.389v96.842h-56.389v83.971h-108.794  V703.86z M1171.657,607.018V465.629l-120.152,141.389H1171.657z" />
    <rect width="23.401" height="96.842" x="1313.439" y="607.018" fill="#7767E0" />
    <rect width="23.401" height="276.122" x="1257.05" y="330.895" fill="#7767E0" />
    <polygon fill="#7767E0"
        points="1051.505 607.018 1171.657 468.957 1171.657 441.419 1028.104 607.018" />
    <rect width="23.401" height="83.971" x="1257.05" y="703.86" fill="#7767E0" />
    <path fill="#A294FE"
        d="M502.754,564.97c0-88.905,16.002-151.119,48.016-186.643c32.01-35.52,80.769-53.282,146.284-53.282  c31.475,0,57.318,3.884,77.528,11.645c20.205,7.768,36.691,17.867,49.452,30.311c12.762,12.442,22.812,25.523,30.15,39.242  c7.338,13.719,13.24,29.726,17.707,48.017c8.719,34.885,13.08,71.257,13.08,109.114c0,84.868-14.356,146.977-43.071,186.325  c-28.714,39.352-78.167,59.024-148.357,59.024c-39.353,0-71.148-6.277-95.396-18.825c-24.248-12.547-44.138-30.948-59.662-55.195  c-11.277-17.228-20.05-40.783-26.322-70.669C505.889,634.154,502.754,601.132,502.754,564.97z M631.649,565.29  c0,59.557,5.264,100.236,15.793,122.035c10.529,21.804,25.788,32.702,45.784,32.702c13.186,0,24.616-4.626,34.297-13.878  c9.676-9.254,16.8-23.875,21.377-43.869c4.571-19.991,6.859-51.153,6.859-93.481c0-62.105-5.264-103.851-15.793-125.228  c-10.529-21.375-26.322-32.064-47.379-32.064c-21.486,0-37.01,10.903-46.581,32.702C636.435,466.016,631.649,506.375,631.649,565.29  z" />
    <path fill="#7767E0"
        d="M678.428,413.34c-4.411-1.208-9.111-1.832-14.118-1.832c-21.486,0-37.01,10.903-46.581,32.702  c-9.571,21.806-14.357,62.164-14.357,121.08c0,59.557,5.264,100.236,15.793,122.035c10.529,21.804,25.788,32.702,45.784,32.702  c5.016,0,9.776-0.674,14.284-2.013c-13.274-4.063-23.872-14.289-31.792-30.69c-10.529-21.799-15.793-62.478-15.793-122.035  c0-58.915,4.786-99.273,14.357-121.08C653.326,427.538,664.14,417.263,678.428,413.34z" />
    <path fill="#7767E0"
        d="M871.892,454.261c-4.467-18.292-10.369-34.298-17.708-48.017c-7.338-13.719-17.388-26.8-30.15-39.242  c-12.761-12.444-29.247-22.543-49.452-30.311c-20.21-7.761-46.053-11.645-77.528-11.645c-4.764,0-9.428,0.105-14.015,0.293  c25.101,1.02,46.201,4.798,63.267,11.352c20.205,7.768,36.691,17.867,49.452,30.311c12.762,12.442,22.812,25.523,30.15,39.242  c7.338,13.719,13.24,29.726,17.708,48.017c8.719,34.885,13.081,71.257,13.081,109.114c0,84.868-14.357,146.977-43.072,186.325  c-26.746,36.655-71.495,56.226-134.227,58.738c4.602,0.189,9.316,0.286,14.146,0.286c70.19,0,119.643-19.672,148.357-59.024  c28.715-39.349,43.071-101.458,43.071-186.325C884.973,525.518,880.611,489.146,871.892,454.261z" />
    <path fill="#F9CBCB"
        d="M701.019,274.604c0.14,13.081-1.802,24.907-5.923,36.637c-0.766,2.203-1.618,4.406-2.546,6.61l1.068,7.089  h-20.482l13.222-7.887c0.302-1.884,0.55-3.832,0.766-5.811c1.391-13.401,0.798-28.207,0.399-34.88  c-0.14-2.416,0.237-4.821,1.1-7.089c3.561-9.282,13.13-35.029,16.216-50.952h22.484  C731.173,243.801,720.794,254.786,701.019,274.604z" />
    <path fill="#1F1C80"
        d="M717.364,257.01c-4.305,5.461-9.807,11.049-16.345,17.595c0.14,13.081-0.758,27.933-4.879,39.662  l-10.241-0.532c1.392-13.401-0.959-35.786,1.135-44.259c2.385-9.651,14.719-35.233,17.804-51.156h22.484  C729.9,235.382,726.102,245.951,717.364,257.01z" />
    <path fill="#13106B"
        d="M717.374,256.968l-0.011,0.042c-4.305,5.461-9.807,11.049-16.345,17.595  c0.14,13.081-0.758,27.933-4.879,39.662l-3.037-0.158c4.274-11.046,5.463-25.516,4.975-40.266  c22.333-18.19,7.508-24.743,14.452-37.926L717.374,256.968z" />
    <path fill="#1F1C80"
        d="M686.357,317.052c-4.928,2.524-13.525,1.825-14.031,7.887h21.292c0.24-2.854,0.1-5.531-0.735-7.887  C690.835,317.416,688.659,317.411,686.357,317.052z" />
    <path fill="#F9CBCB"
        d="M746.601,316.12c0.886,1.921,1.721,3.702,2.582,5.571c-5.719,1.365-11.437,2.736-17.154,4.106  c3.46-2.873,6.944-5.692,10.388-8.602c-1.319-2.674-2.925-6.446-4.355-8.868c-5.731-9.698-12.213-18.288-18.774-27.341  c-1.561-2.153-2.568-4.235-3.049-7.043c-3.058-17.831-2.672-36.223-5.886-54.088c5.076-0.79,10.141-1.554,15.213-2.329  c14.136,22.081,11.145,33.856,5.218,57.555c7.036,9.523,10.915,20.281,13.738,31.786  C745.102,309.236,746.091,313.478,746.601,316.12z" />
    <path fill="#1F1C80"
        d="M716.254,273.965c0.497,2.813,1.311,4.627,3.079,7.102c7.437,10.408,13.263,22.252,19.807,33.293  c2.827-0.643,5.609-1.314,8.418-1.969c-3.25-12.881-8.703-26.518-16.773-37.301c5.919-23.713,8.917-35.465-5.211-57.55  c-0.002-0.007-0.005-0.012-0.01-0.018c-5.766,0.881-11.532,1.762-17.298,2.642c0.081,0.437,0.16,0.875,0.241,1.313  c0.002,0.009-0.001,0.029,0.001,0.039C711.582,238.926,713.184,256.571,716.254,273.965z" />
    <path fill="#13106B"
        d="M711.768,222.2c1.852,2.606,0.107,7.825,2.139,10.665c5.258,7.352,12.331,1.903,16.883,4.866  c7.743,5.04-0.858,28.016-2.562,34.236c-0.051,0.188-1.246,4.329-2.032,4.242c3.572,0.43,2.306-2.089,6.87,5.654  c2.059,3.493,12.715,23.887,13.115,30.357c0.912,0.885,0.854-0.003,1.382,0.18c-3.261-12.902-8.705-26.52-16.777-37.311  c5.918-23.711,8.92-35.466-5.213-57.548c-5.62,1.287-12.643,0.424-18.131,1.697C706.795,219.388,710.563,220.503,711.768,222.2z" />
    <path fill="#1F1C80"
        d="M741.522,315.468c-4.813,3.369-11.483,4.374-11.924,10.91c6.637-1.589,13.272-3.182,19.91-4.766  c-0.568-2.695-1.728-4.959-3.248-7.26C744.798,315.612,743.412,315.883,741.522,315.468z" />
    <path fill="#F9CBCB"
        d="M672.975,165.739c0.118,0.193,0.675,1.359,0.791,1.745c1.351-0.811,2.548-1.838,3.837-2.751  c-0.373-0.362-1.104-1.336-1.088-1.793c0.054-1.507,1.028-3.63-0.102-4.699c-1.13-1.069-1.66,1.477-1.74,2.205  c-1.771-1.993-1.764-2.62-3.277-5.24C667.376,148.239,671.71,163.667,672.975,165.739z" />
    <path fill="#5F4AFF"
        d="M672.852,166.738c2.707,6.67,5.683,15.605,12.475,18.67c7.724,3.486,14.281-0.346,22.001-0.305  c1.182-5.791,2.557-11.368,3.793-17.081c-8.453,1.18-14.916,5.782-22.278,9.744c-4.453-4.253-7.688-9.214-11.04-14.343  C676.142,164.522,674.488,165.546,672.852,166.738z" />
    <path fill="#4A33F5"
        d="M674.524,165.682c2.707,6.801,8.519,17.479,11.286,19.396c2.218,1.537,14.31-0.403,21.502-0.059  c0.032-0.119-0.007-0.018,0.016,0.08c-7.725-0.029-18.758,4.174-22.374,2.084c-4.533-2.62-9.389-13.781-12.102-20.447  C673.365,166.257,673.964,165.957,674.524,165.682z" />
    <path fill="#F9CBCB"
        d="M698.602,190.83l6.235,27.513h22.485c0,0,3.721-26.449-1.985-40.304c-2.569-6.242-11.004-8.937-11.533-9.104  l-0.024-0.01l-6.27,0.361L698.602,190.83z" />
    <path fill="#FFF"
        d="M698.862,191.958l5.255,23.194c0.424,1.869,2.063,3.194,3.952,3.194c3.26,1.501,7.897,0.986,12.856,0  c3.706,0,6.787-2.882,7.092-6.631c0.712-8.757,1.23-24.176-2.686-33.679c-2.011-4.881-7.615-7.598-10.206-8.626  c-0.817-0.324-1.684-0.484-2.561-0.484l-4.849,0.011c-0.744,0-9.005,20.746-9.005,20.746  C698.642,190.445,698.693,191.212,698.862,191.958z" />
    <rect width="23.859" height="3.541" x="699.55" y="216.242" fill="#182F57"
        transform="rotate(-180 711.48 218.012)" />
    <path fill="#5F4AFF"
        d="M708.948,231.978c-0.302,1.117-1.198,1.972-2.309,2.289c-1.381,0.405-2.837,0.449-4.369,0.23  c-0.065-0.011-0.119-0.022-0.183-0.033c-1.122-0.175-2.287-0.504-3.474-0.931l-0.011-34.303c0,0-0.147-6.305,0-8.4  c0.649-9.246-0.272-20.122,8.519-21.857c0.425-0.084,0.608-0.048,0.608-0.048C701.021,197.317,712.131,220.194,708.948,231.978z" />
    <path fill="#5F4AFF"
        d="M733.98,235.366c-4.718,1.027-9.997,0.558-14.056-0.017c-3.412-0.483-5.836-3.574-5.584-7.062  c1.413-19.519-4.202-38.64-0.558-59.362l0.022,0.011c0.529,0.165,9.004,2.843,11.533,9.101c4.756,11.769,6.614,37.834,10.242,54.772  C735.824,233.96,735.114,235.119,733.98,235.366z" />
    <path fill="#7549EB"
        d="M730.315,219.277c-3.403,0.66-6.948,0.689-10.654,0v-1.629c3.216,0.497,6.781,0.477,10.654,0V219.277z" />
    <path fill="#F9CBCB"
        d="M733.57,221.039c0,0,0.391-1.267,1.098-2.572l-4.307-1.704c0,0-0.341,2.158-0.904,2.521  c-0.923,0.596-2.953,1.299-3.768,2.646c-0.818,1.345,2.661,0.229,2.661,0.229s-0.561,3.417-2.414,5.655  C724.081,230.05,730.625,232.199,733.57,221.039z" />
    <path fill="#5F4AFF"
        d="M729.703,217.758l5.244,2.238c2.684-4.948,8.823-18.476,9.234-23.813  c0.516-6.746-21.604-22.161-21.604-22.161l-5.567,10.173c5.799,7.406,15.65,12.786,15.65,12.786L729.703,217.758z" />
    <path fill="#4A33F5"
        d="M717.363,184.15c9.698,8.347,16.496,12.376,16.466,11.716l-2.687,22.506l-1.438-0.614l2.956-20.778  C727.366,193.869,722.266,189.604,717.363,184.15z" />
    <path fill="#1F1C80"
        d="M711.374,164.55c0,0,5.369-0.018,6.657-6.264c1.288-6.246-3.833-8.467-7.195-8.424  c-4.669,0.06-7.072-3.362-7.072-3.362s-2.984,4.067-1.267,7.636C703.985,157.23,711.374,164.55,711.374,164.55z" />
    <path fill="#F9CBCB"
        d="M707.232,161.599l0.12,1.803l0.317,4.837l0.048,0.737c0.097,3.838,5.77,2.249,6.064-0.048l-0.934-3.819  l-0.685-2.798l-0.239-0.982l-0.407-1.667L707.232,161.599z" />
    <path fill="#F0B4B4"
        d="M707.351,163.401l0.317,4.837c1.428-0.294,3.593-0.96,4.691-2.449c0.171-0.229,0.333-0.456,0.488-0.682  l-0.685-2.798l-0.239-0.982L707.351,163.401z" />
    <path fill="#F9CBCB"
        d="M705.183,153.391c-0.921-0.57-2.115,0.102-2.169,1.197c-0.194,3.938-0.015,10.332,3.068,11.375  c4.508,1.525,7.727-4.431,7.727-4.431s1.932-2.758,0.572-3.702c-1.359-0.944-2.647,1.378-2.647,1.378  C711.51,154.832,707.879,155.059,705.183,153.391z" />
    <path fill="#FDB0FF"
        d="M580.045,146.834c-0.071,5.525-0.088,11.062-0.044,16.588c2.325-0.078,6.467-0.215,8.333-0.277  c1.866-0.062,0.291-0.009,1.956-0.065c1.665-0.056,1.329-0.043,4.025-0.134c2.696-0.09-4.131,0.14,2.961-0.099  c7.092-0.238,19.499-0.664,33.396-1.178c13.897-0.514,39.661-1.601,55.77-2.179c0.534-2.553,0.538-5.017,0.019-7.577  c-16.11-0.802-41.854-1.883-55.763-2.546c-13.909-0.664-26.406-1.287-33.511-1.649c-7.105-0.362-0.271-0.016-2.969-0.154  c-2.698-0.138-2.361-0.122-4.022-0.207c-1.661-0.085-0.111-0.006-1.956-0.101C586.396,147.162,582.337,146.953,580.045,146.834z" />
    <path fill="#F3A4F5"
        d="M590.296,160.939c1.665-0.055,1.329-0.042,4.025-0.133c2.696-0.091-4.13,0.14,2.961-0.099  c7.092-0.239,19.499-0.669,33.395-1.184c13.897-0.515,39.66-1.611,55.77-2.19c0.526,0.7,0.524,1.419-0.005,2.156  c-16.11,0.578-41.873,1.665-55.77,2.18c-13.897,0.516-26.304,0.938-33.396,1.178c-7.092,0.24-0.265,0.008-2.961,0.099  c-2.696,0.091-2.359,0.078-4.025,0.134c-1.665,0.056-0.09,0.003-1.956,0.065c-1.866,0.062-6.009,0.199-8.333,0.277  c-0.057-0.712-0.054-1.425,0.006-2.141c2.325-0.077,6.467-0.215,8.333-0.277C590.205,160.942,588.63,160.995,590.296,160.939z" />
    <path fill="#C727CC"
        d="M688.441,150.055c0.931,0.006,1.617,0.571,1.632,1.674c0.03,2.35,0.023,5.378-0.019,7.727  c-0.02,1.102-0.709,1.658-1.639,1.651c-0.931-0.006-1.617-0.571-1.631-1.674c-0.031-2.35-0.024-5.377,0.019-7.726  C686.821,150.604,687.51,150.048,688.441,150.055z" />
    <path fill="#FFF"
        d="M578.085,155.112c-0.004,1.878-0.033,8.066,2.731,8.086c2.764,0.021,2.77-6.161,2.774-8.039  c0.004-1.878,0.033-8.066-2.731-8.086C578.095,147.053,578.089,153.234,578.085,155.112z" />
    <path fill="#C727CC"
        d="M577.318,155.105c0.005-2.426,0.137-8.822,3.543-8.796c3.406,0.026,3.501,6.433,3.496,8.858  c-0.005,2.425-0.137,8.822-3.542,8.796C577.409,163.936,577.313,157.53,577.318,155.105z M578.854,155.119  c-0.003,1.339-0.091,7.265,1.965,7.28c2.056,0.015,2.001-5.91,2.004-7.248c0.003-1.338,0.091-7.266-1.965-7.28  C578.802,147.858,578.856,153.78,578.854,155.119z" />
    <path fill="#FFF"
        d="M588.585,163.136c0.522-0.017,1.044-0.034,1.566-0.052c0.589-5.294,0.556-10.448-0.094-15.735  c-0.524-0.026-1.048-0.054-1.571-0.081C589.167,152.603,589.201,157.794,588.585,163.136z" />
    <path fill="#FFF"
        d="M594.058,162.955c0.522-0.017,1.043-0.035,1.565-0.052c0.554-5.136,0.523-10.142-0.093-15.27  c-0.523-0.026-1.046-0.055-1.569-0.082C594.603,152.727,594.636,157.771,594.058,162.955z" />
    <path fill="#FB78FF"
        d="M629.706,148.857c-0.616,4.394-0.628,8.906-0.035,13.308c12.381-0.501,40.906-1.774,49.478-2.109  c8.571-0.335,0.748-0.029,3.939-0.153c3.191-0.125,1.268-0.049,3.771-0.148c-0.15-2.691-0.143-5.411,0.019-8.1  c-2.502-0.132-0.582-0.032-3.771-0.2c-3.189-0.168,4.629,0.242-3.937-0.207C670.604,150.798,642.081,149.484,629.706,148.857z" />
    <path fill="#EC67F0"
        d="M686.345,157.195c0.005-1.857,0.008-3.713,0.013-5.57c0.142,0.008,0.283,0.014,0.425,0.023  c-0.007,2.704-0.014,5.407-0.02,8.111c-19.157,0.75-38.307,1.658-57.463,2.422c0.003-0.856,0.004-1.712,0.007-2.568  C648.322,158.856,667.33,157.938,686.345,157.195z" />
    <path fill="#FFF"
        d="M629.957,147.517c0.656,0.003,1.276,0.325,1.279,1.146c0.017,4.637,0.002,9.576-0.037,14.212  c-0.007,0.821-0.629,1.135-1.285,1.131c-0.656-0.004-1.276-0.326-1.278-1.146c-0.016-4.636-0.003-9.574,0.037-14.211  C628.68,147.828,629.301,147.513,629.957,147.517z" />
    <path fill="#FFF"
        d="M681.286,151.358c-0.005,2.872-0.013,5.743-0.021,8.615c0.713-0.027,1.426-0.056,2.138-0.083  c0.007-2.807,0.013-5.613,0.02-8.419C682.711,151.433,681.998,151.395,681.286,151.358z" />
    <path fill="#1F1C80"
        d="M808.758,833.652h44.288l3.868-20.992l0.432-2.334l4.037-21.943l0.432-2.334l4.043-21.949l0.432-2.334  l4.043-21.949l0.432-2.334l4.043-21.943l0.426-2.334l3.786-20.554l0.432-2.334l4.3-23.343l0.431-2.334l4.728-25.666h24.279  l4.728,25.666l0.432,2.334l4.3,23.343l0.432,2.334l3.786,20.554l0.426,2.334l4.043,21.943l0.431,2.334l4.043,21.949l0.432,2.334  l4.043,21.949l0.432,2.334l4.037,21.943l0.432,2.334l3.868,20.992h44.288l-3.927-20.992l-0.437-2.334l-4.102-21.943l-0.437-2.334  l-4.108-21.949l-0.437-2.334l-4.102-21.949l-0.437-2.334l-4.107-21.943l-0.432-2.334l-3.845-20.554l-0.437-2.334l-4.37-23.343  l-0.432-2.334l-4.802-25.666h1.392v-3.646h-114.28v3.646h1.127l-4.802,25.666l-0.431,2.334l-4.37,23.343l-0.438,2.334l-3.845,20.554  l-0.431,2.334l-4.107,21.943l-0.437,2.334l-4.102,21.949l-0.438,2.334l-4.107,21.949l-0.438,2.334l-4.101,21.943l-0.438,2.334  L808.758,833.652z M947.563,812.66h39.487l3.489,18.658h-39.539L947.563,812.66z M943.088,788.383h39.417l4.107,21.943h-39.481  L943.088,788.383z M938.613,764.101h39.353l4.108,21.949h-39.417L938.613,764.101z M934.138,739.818h39.283l4.107,21.949h-39.341  L934.138,739.818z M929.669,715.542h39.213l4.101,21.943h-39.271L929.669,715.542z M925.451,692.654h39.148l3.845,20.554h-39.207  L925.451,692.654z M920.719,666.977h39.078l4.364,23.343h-39.142L920.719,666.977z M915.562,638.977h38.997l4.802,25.666h-39.072  L915.562,638.977z M881.816,664.643h-39.073l4.802-25.666h38.997L881.816,664.643z M877.084,690.32h-39.142l4.364-23.343h39.078  L877.084,690.32z M872.866,713.208h-39.207l3.845-20.554h39.149L872.866,713.208z M868.391,737.485H829.12l4.102-21.943h39.212  L868.391,737.485z M863.916,761.767h-39.341l4.107-21.949h39.282L863.916,761.767z M859.447,786.05H820.03l4.107-21.949h39.352  L859.447,786.05z M854.972,810.326h-39.481l4.107-21.943h39.417L854.972,810.326z M851.104,831.318h-39.539l3.489-18.658h39.487  L851.104,831.318z" />
    <path fill="#F7C1CE"
        d="M881.03,516.285c0,0-12.072-8.192-14.591-11.548c-3.038-4.047-5.059-15.959-5.059-15.959  c-2.949-1.481-4.617-4.546-3.708-7.7c0.606-2.105,2.943,3.35,4.69,3.719c0,0,0.63-4.672,1.633-3.182  c1.145,1.701,0.608,5.896,0.608,5.896l7.369,12.392l14.538,9.547L881.03,516.285z" />
    <path fill="#F0C171"
        d="M875.479,513.601l3.138-10.851l8.922,4.524c0,0,1.046,5.836,1.013,6.327  c-0.033,0.49-1.832,4.216-1.832,4.216L875.479,513.601z" />
    <path fill="#F7C1CE"
        d="M884.042,487.082c-1.626,1.646-5.881,6.551-5.049,10.462c0.833,3.91,5.865,4.819,5.865,4.819l5.601-9.874  L884.042,487.082z" />
    <path fill="#F7C1CE"
        d="M929.779,604.46c-0.252-2.624-1.096-7.82-1.72-8.005c-0.605-0.179-10.274,3.802-15.722,4.827  c-5.96,1.122-14.146,3.628-18.438-1.265c-9.236-10.528-13.925-25.031-16.262-38.673c4.092-2.254,8.182-4.435,12.299-6.617  c17.979,13.198,9.175,20.884,12.885,38.45c4.304,0.409,8.041,0.592,12.496,0.14c3.919-0.397,8.66-0.902,12.739-1.093  c1.119-0.554,1.886-0.269,3.038-0.09C931.901,595.418,933.825,602.772,929.779,604.46z" />
    <path fill="#1F1C80"
        d="M928.505,591.93c1.628-0.371,3.279-0.143,4.858,0.178c0.275,0.056,0.254,0.146,0.241,0.382  c-0.042,0.79-0.167,1.714-0.252,2.526c-0.018,0.167-0.013,0.175-0.194,0.274c-0.505,0.277-0.523,0.764-0.373,1.485  c0.435,2.09-0.138,6.586-0.704,8.161c-1.961,5.461-2.812-1.838-2.86-4.031C932.25,597.469,930.965,595.129,928.505,591.93z" />
    <path fill="#F7C1CE"
        d="M890.816,628.969c0.555,3.043,0.012,3.025-1.315,4.636c-4.605,0.461-9.956,0.503-9.498-1.917  c3.165-0.978,6.381-2.069,6.696-3.1c0.727-2.379-1.637-13.29-3.819-19.909c-1.175-3.58-2.545-7.161-4.009-10.769  c-0.774-1.893-1.278-3.897-1.455-5.939c-1.38-15.477-0.765-31.234,1.641-45.947h13.268c7.226,15.85-5.883,27.458-4.699,49.49  c1.482,4.42,2.583,8.811,3.254,13.165C891.877,615.196,891.897,622.591,890.816,628.969z" />
    <path fill="#1F1C80"
        d="M890.947,629.778c0.69,2.768,0.294,4.367-0.324,5.904l-3.191-0.002c0,0-0.527-1.308-1.214-1.045  c-3.151,1.206-9.185,1.911-10.155,0.36c-0.861-1.375,3.94-3.306,3.94-3.306C881.441,634.036,884.955,632.985,890.947,629.778z" />
    <path fill="#1F1C80"
        d="M914.676,584.347c0,0-3.733,4.125-7.242,3.271c0,0-3.887,5.89-9.992,1.822  c-4.627,2.862-9.247,2.862-13.874,0c-6.1,4.068-9.993-1.822-9.993-1.822c-3.508,0.854-7.241-3.271-7.241-3.271  c3.35-15.766,11.072-27.733,11.65-39.933l19.78,0.33C902.958,549.913,904.005,571.215,914.676,584.347z" />
    <path fill="#F7C1CE"
        d="M874.022,511.486l-1.834,11.627c0,0-0.89-0.622-2.277-1.649l3.442-10.538  C873.576,511.112,873.799,511.297,874.022,511.486z" />
    <path fill="#3E3279"
        d="M898.696,546.025c-4.945-17.164-2.143-25.385-11.264-34.72c-1.982,2.306-5.011,2.462-13.409,0.18  l-1.836,11.627c3.918,6.005,8.857,9.333,6.868,22.913H898.696z" />
    <path fill="#FFD182"
        d="M899.347,547.442c-7.873,1.164-14.341-1.577-19.359-1.037c-0.529,0.058-1.044,0.151-1.545,0.292  c-1.044,0.278-2.126-0.522-1.941-1.587c1.68-9.387,0.457-14.004-1.779-17.033l-0.02-0.021c-1.501-2.03-3.476-3.356-5.331-4.939  l0.539-1.652l3.442-10.538l0.158-0.481c10.751,4.977,11.225-0.859,13.21-3.17c3.871,3.964,6.145,8.652,7.852,14.052  c1.584,5.015,2.683,10.638,4.129,16.865c0.56,2.37,1.164,4.819,1.865,7.364C900.8,546.425,900.23,547.311,899.347,547.442z" />
    <path fill="#F0C171"
        d="M880.839,538.888l-0.85,7.518c-0.531,0.056-1.044,0.149-1.548,0.289c-1.044,0.28-2.126-0.522-1.939-1.585  c1.678-9.389,0.457-14.004-1.781-17.034l2.785,2.375C879.951,532.534,881.199,535.696,880.839,538.888z" />
    <path fill="#F0C171"
        d="M898.702,538.192c-1.38,0.457-3.049,0.38-3.869,0.268c-2.974-0.401-5.709-4.075-6.702-6.06  c-1.311-2.622-8.741-1.37-9.039-7.319l15.479-3.755C896.157,526.342,897.257,531.964,898.702,538.192z" />
    <path fill="#1F1C80"
        d="M905.871,514.882c-0.469-1.67-1.251-3.245-1.659-4.931c-0.675-2.792-0.294-5.745-0.854-8.562  c-0.56-2.818-3.473-4.929-5.639-6.816c-1.63-1.42,0.028-4.48-2.368-8.318c-0.894-1.432-4.16-2.646-6.321-2.383  c-2.161,0.263-4.139,1.717-5.035,3.701c-0.858,1.9-0.259,6.189-0.982,8.145c-0.974,2.637-3.884,2.551-4.465,5.301  c-0.837,3.959,2.421,7.684,2.541,11.729c0.08,2.709-1.248,5.234-1.916,7.861c-0.667,2.627-0.403,5.928,1.915,7.334  c1.859,1.128,4.356,0.595,6.269,1.631c2.239,1.212,2.975,4.148,5.01,5.677c2.579,1.937,6.91,0.523,7.85-2.562  c0.777-2.552-0.504-5.52,0.72-7.89c1.038-2.009,3.551-2.888,4.67-4.854C906.464,518.436,906.339,516.553,905.871,514.882z" />
    <path fill="#58595B"
        d="M802,411.963c0.276-14.237,12.041-25.555,26.278-25.279c14.237,0.276,25.555,12.041,25.279,26.278  c-0.276,14.237-12.041,25.555-26.279,25.279C813.042,437.966,801.724,426.201,802,411.963z" />
    <path fill="#5E4FB8"
        d="M815.634,385.949c-14.683,6.658-21.237,23.968-14.608,38.586c6.628,14.619,23.967,21.095,38.65,14.437  c14.684-6.658,21.237-23.968,14.608-38.586C847.656,385.767,830.318,379.291,815.634,385.949z M837.827,434.894  c-12.444,5.643-27.087,0.174-32.705-12.216c-5.618-12.389-0.084-27.007,12.361-32.65c12.444-5.642,27.086-0.173,32.704,12.216  C855.805,414.633,850.271,429.251,837.827,434.894z" />
    <rect width="6.08" height="6.053" x="837.034" y="436.822" fill="#5E4FB8"
        transform="rotate(-24.394 839.995 439.832)" />
    <path fill="#5E4FB8"
        d="M869.424,490.042c1.461,2.967,0.117,6.58-2.973,7.98c-3.089,1.401-6.696,0.033-7.962-3.022l-17.162-41.398  l-0.957-2.305l-0.714-1.73l-0.957-2.305l-1.195-2.882l7.671-3.478l1.381,2.798l1.103,2.239l0.831,1.678l1.103,2.239L869.424,490.042  z" />
    <polygon fill="#FFF" points="847.167 444.852 839.164 448.481 838.184 446.127 846.041 442.564" />
    <polygon fill="#FFF" points="849.14 448.855 840.874 452.602 839.895 450.248 848.014 446.567" />
    <path fill="#A7A9AC"
        d="M811.608,403.51c-3.227,7.02-1.178,13.444-1.863,13.522c-0.808,0.093-4.936-8.709-1.256-16.043  c3.625-7.222,12.952-9.293,13.414-8.541C822.326,393.137,815.128,395.853,811.608,403.51z" />
    <path fill="#A7A9AC"
        d="M811.902,419.78c1.072,0.401,1.613,1.593,1.207,2.663c-0.405,1.07-1.603,1.614-2.675,1.213  c-1.072-0.4-1.612-1.593-1.207-2.663C809.632,419.923,810.83,419.38,811.902,419.78z" />
    <path fill="#F7C1CE"
        d="M873.352,510.926l-3.442,10.538c-4.596-3.397-14.66-11.208-16.133-15.505  c-2.518-7.319-1.601-26.634-1.601-26.634c-1.944-2.404-3.751-7.124-1.721-10.209c1.978-3.016,2.401,3.407,4.674,5.331  c0,0,3.208-4.544,2.621-0.873c-0.584,3.672-1.879,5.637-1.879,5.637c2.569,6.53,3.569,13.575,4.688,21.409  C864.957,504.015,869.213,507.45,873.352,510.926z" />
    <path fill="#F7C1CE"
        d="M207.199,519.452c1.043-0.922,2.252,5.615,3.424,7.378c1.172,1.764,1.54-3.131,2.474-2.408  c1.989,1.541-0.042,6.741,0.086,7.109c0.324,0.928,2.416,3.102,2.416,3.102s-4.316,3.156-4.55,2.327  c-0.235-0.829-1.726-3.698-3.141-5.72C204.713,526.68,206.155,520.374,207.199,519.452z" />
    <path fill="#F0C57A"
        d="M245.588,539.553c-2.13,5.24-11.724,18.571-18.777,19.282c-7.702,0.776-17.143-23.155-17.143-23.155  l5.134-3.145l11.065,14.491c3.478-1.46,5.478-14.866,11.441-18.605C240.599,526.357,248.593,532.162,245.588,539.553z" />
    <rect width="2.384" height="15.878" x="208.762" y="517.021" fill="#414C96"
        transform="rotate(152.141 209.959 524.955)" />
    <path fill="#F7C1CE"
        d="M207.489,521.222c1.293-0.929,1.919,6.646,3.05,8.788c1.131,2.141,2.111-3.386,3.09-2.457  c2.086,1.982-0.821,7.665-0.717,8.099c0.262,1.093,2.394,3.806,2.394,3.806s-5.273,3.096-5.444,2.126  c-0.172-0.97-1.54-4.406-2.919-6.868C203.833,529.161,206.196,522.151,207.489,521.222z" />
    <path fill="#1F1C80"
        d="M264.218,553.009c-0.949-2.266-2.473-4.419-2.469-6.876c0.004-2.632,1.779-4.979,1.986-7.603  c0.304-3.87-2.792-7.123-5.895-9.456c-1.564-1.175-3.283-2.38-3.955-4.219c-0.83-2.272,0.194-4.776,0.125-7.193  c-0.087-3.034-2.085-5.93-4.89-7.088c-1.447-0.597-3.098-0.78-4.343-1.731c-1.096-0.838-1.71-2.149-2.605-3.199  c-2.54-2.979-7.581-3.345-10.525-0.764c-2.943,2.581-3.238,7.628-0.615,10.534c0.031,9.833,2.236,18.511,6.158,26.278  c2.195,3.826,2.784,8.541,1.597,12.789c-0.455,1.629-1.165,3.236-1.108,4.926c0.087,2.564,2.185,4.913,4.722,5.287  c4.755,0.702,8.518-4.68,13.323-4.82c2.586-0.075,5.458,1.343,7.587-0.126C265.335,558.352,265.167,555.275,264.218,553.009z" />
    <path fill="#FFD182"
        d="M247.063,590.524c-2.847-2.195-17.026-10.464-22.262-14.416c1.488-1.77,7.515-14.461,4.687-24.342  c-3.172-11.081,5.878-21.749,5.878-21.749l6.927-2.464c0,0,10.838,3.393,12.351,15.405  C256.407,556.942,251.859,575.872,247.063,590.524z" />
    <path fill="#F7C1CE"
        d="M242.294,527.554c-3.072,2.485-6.011,4.676-6.927,2.464l-0.154-0.864l-0.693-4.038l-0.055-0.298l0.59-0.515  l5.316-4.649l1.439,5.902L242.294,527.554z" />
    <path fill="#E8ACBA"
        d="M241.679,525.025c-1.97,1.946-4.699,3.715-6.583,3.537l-0.693-4.038l0.534-0.813l5.316-4.649  L241.679,525.025z" />
    <path fill="#F7C1CE"
        d="M240.34,517.027c-3.689,0.807-8.084-9.033-8.756-5.694c-1.558,7.752-0.391,13.33,1.566,14.257  c2.949,1.397,8.434-1.321,9.06-5.575c0,0,3.071-1.96,2.08-3.523C242.927,514.341,240.34,517.027,240.34,517.027z" />
    <path fill="#FFD996"
        d="M248.866,548.494c-3.024,5.717-15.469,19.787-23.575,19.787c-8.853,0-16.853-28.312-16.853-28.312  l6.201-2.989l10.929,17.756c4.125-1.262,7.937-16.287,15.15-19.857C244.701,532.908,253.132,540.428,248.866,548.494z" />
    <path fill="#F7C1CE"
        d="M170.554,593.831c-2.709,1.264-5.122,2.171-7.942,3.157c-1.801-1.684-3.998-3.252-5.82-4.911  c2.296-2.128,4.433-4.378,6.517-6.711C165.744,588.171,168.114,591.031,170.554,593.831z" />
    <path fill="#1F1C80"
        d="M247.449,589.553c-2.709,13.796-16.082,16.951-25.233,15.768c-7.85-1.014-15.817-9.544-30.616-21.702  c-7.194,5.468-16.354,9.81-24.816,12.785c-2.564-2.671-4.991-5.99-6.262-9.737c10.685-7.773,26.948-24.201,33.983-23.357  C210.172,565.188,232.087,581.651,247.449,589.553z" />
    <path fill="#1F1C80"
        d="M163.002,596.941c-0.56,1.73-0.096,2.12-0.982,4.118c-0.885,1.998-2.083,3.66-3.135,5.959  c-0.646-0.083-1.67-0.491-2.281-0.654c0.358-2.707,0.531-3.471,0.794-6.162c-1.265,1.119-3.419,2.83-4.466,3.849  c-1.047,1.02-1.311,1.533-2.514,1.262c-3.173-0.715-14.005-4.126-13.531-7.825c0.474-3.698,8.93,0.508,11.46-0.985  c2.53-1.493,5.538-3.183,8.123-4.674C158.844,593.313,160.596,595.526,163.002,596.941z" />
    <path fill="#F1CCCD"
        d="M468.352,783.483c-0.762,4.352-1.205,8.233-1.404,11.819c-0.514,9.162-0.337,16.401,1.118,25.114l4.408-0.27  c0,0,3.833-18.241,5.889-30.708c0.529-3.164,0.932-5.983,1.126-8.098c1.137-12.075-4.882-45.317-5.269-47.469l-0.016-0.082  l-0.005-0.031l-14.16-1.147C453.096,757.092,462.121,762.126,468.352,783.483z" />
    <path fill="#F1CCCD"
        d="M443.086,818.843c0.417-1.908,6.513-16.175,12.279-24.493c1.377-1.986,2.664-3.72,3.746-4.991  c7.729-9.076,15.296-57.351,15.294-57.352c0.002,0.001-11.497-0.932-11.491-0.929c-9.923,10.35-8.861,25.812-10.371,40.86  c-0.523,5.216-2.159,10.167-4.64,14.39c-0.5,0.85-0.968,1.718-1.419,2.608c-3.151,6.207-6.207,14.941-9.317,28.928  C437.168,817.863,443.084,818.842,443.086,818.843z" />
    <path fill="#1F1C80"
        d="M485.355,775.664c0.013,0.81-0.692,1.446-1.494,1.341c-13.738-1.755-22.525,2.834-33.437,1.08  c-0.627-0.1-1.263-0.222-1.907-0.366c-1.149-0.257-1.99-1.258-2.068-2.434c-1.184-17.718-0.261-33.694,4.624-43.931h25.556  C476.629,731.354,485.076,760.053,485.355,775.664z" />
    <path fill="#110E6B"
        d="M450.36,761.059c0.009,8.752,0.043,14.104,0.065,17.025c-0.627-0.1-1.263-0.222-1.907-0.366  c-1.149-0.257-1.99-1.258-2.068-2.434c-1.184-17.718-0.261-33.694,4.624-43.931h1.202l1.376,1.359  C453.651,732.713,450.342,746.198,450.36,761.059z" />
    <path fill="#1F1C80"
        d="M472.212,670.775c0.018-2.018-0.594-4.13-2.075-5.501c-1.832-1.697-4.657-1.936-7.055-1.239  s-4.474,2.187-6.497,3.65c-3.161,2.287-6.541,4.885-7.479,8.673c-1.087,4.39,1.459,9.191-0.059,13.452  c-1.089,3.057-3.976,5.019-6.308,7.276c-2.331,2.256-4.301,5.686-2.92,8.622c1.573,3.344,6.476,3.891,8.288,7.112  c1.142,2.029,0.745,4.605,1.652,6.75c0.933,2.206,3.322,3.707,5.715,3.591c2.393-0.116,4.625-1.841,5.34-4.128  c0.478-1.527,0.322-3.202,0.827-4.72c0.778-2.338,2.939-3.877,4.595-5.701c3.972-4.374,5.102-11.116,2.04-16.517  c2.503-4.609,3.657-9.6,2.042-15.372C471.62,674.759,472.194,672.792,472.212,670.775z" />
    <rect width="7.583" height="16.099" x="489.761" y="688.364" fill="#1F1C80"
        transform="rotate(-160.322 493.543 696.407)" />
    <path fill="#F1CCCD"
        d="M477.281,715.224c0,0,0.5,10.229,5.844,10.673c4.484,0.381,9.627-16.822,13.165-21.355  c3.405-4.364,5.34-7.888,3.021-9.273c-6.124-3.657-6.466,2.577-6.701,7.344l-7.172,11.08l-7.536-19.548L477.281,715.224z" />
    <path fill="#F1CCCD"
        d="M468.655,682.76c-6.478,5.516-10.125-4.495-10.125-4.495s-2.879-1.327-1.742-3.956  c1.007-2.33,3.516,0.544,3.516,0.544c3.417,0,6.134-2.964,7.555-4.928c0.5-0.693,1.566-0.54,1.833,0.266  c0.646,1.956,1.443,5.061,1.167,7.879C470.678,679.879,470.051,681.568,468.655,682.76z" />
    <path fill="#F1CCCD"
        d="M433.856,754.719c2.743,0.681,5.571-3.605,5.571-3.605s1.113,2.784,1.966,1.515  c0.853-1.276-0.523-4.709-0.523-4.709l0.789-2.594l8.798-28.883l-0.634-21.466c-5.576,2.355-10.673,38.195-12.125,49.277  c-0.268,2.037-0.409,3.236-0.409,3.236S430.905,753.987,433.856,754.719z" />
    <path fill="#FB78FF"
        d="M496.468,704.842c-1.964,5.552-8.94,21.287-13.403,21.287c-0.261,0-0.523-0.057-0.784-0.166  c-1.851-0.766-3.627-4.093-4.96-7.293c-1.302-3.135-2.177-6.148-2.286-6.531l-0.013-0.039c-0.501,4.92,1.406,19.921,1.994,19.712  c-6.353,2.19-14.169,2.643-21.78,1.271l-0.052-0.013c-1.624-0.292-3.235-0.666-4.824-1.128c4.163-6.039,5.425-16.673,3.292-20.252  c-0.017,0.152-0.048,0.339-0.091,0.557c-1.167,5.917-11.697,35.546-11.793,35.525c-1.145-0.27-5.021-1.087-5.008-1.179  c1.515-11.273,7.574-49.338,13.13-51.667l11.352-6.475c0.03-0.022,0.065-0.03,0.1-0.026l6.179,0.148c0.03,0,0.052,0.004,0.078,0.017  c0.518,0.266,6.662,3.422,9.336,4.799c0.792,0.409,1.402,1.097,1.711,1.933l6.653,18.057c0.056,0.148,0.257,0.17,0.34,0.035  l6.746-11.615C492.445,701.704,496.494,704.764,496.468,704.842z" />
    <path fill="#F1CCCD"
        d="M467.477,688.569c-2.421,3.258-4.514,2.815-6.386-0.132l0.661-5.977l4.737,0.353  C466.646,683.375,467.279,687.604,467.477,688.569z" />
    <path fill="#DB85B4"
        d="M453.56,712.248l0.091-0.557C453.634,711.843,453.603,712.03,453.56,712.248z" />
    <path fill="#EC62F0"
        d="M453.651,732.712l-3.292-0.77c4.163-6.039,5.417-16.622,3.284-20.202l1.088-3.232  C457.284,713.459,458.853,720.839,453.651,732.712z" />
    <path fill="#EC62F0"
        d="M482.281,725.964c-1.851-0.766-3.627-4.093-4.96-7.293l-2.286-6.531l-0.013-0.039  c0.99-3.945,0.791-5.914,0.283-9.225C477.755,707.066,476.938,721.653,482.281,725.964z" />
    <path fill="#414C96"
        d="M438.309,812.949l-2.233,2.853l-3.22,6.112l1.077,0.829l4.442-4.222l-0.474,4.523  c-0.128,1.218,0.099,2.445,1.006,3.267c2.393,2.169,7.472,5.83,8.884,4.252c1.452-1.622-3.478-5.161-3.578-8.122  c-0.096-2.868-0.073-6.516-0.073-6.516L438.309,812.949z" />
    <path fill="#414C96"
        d="M468.003,820.041l-1.067,3.543l0.746,5.985l1.185,0.056l1.073-5.242l1.919,3.477  c0.517,0.936,1.291,1.702,2.352,1.838c2.798,0.358,8.263,0.444,8.487-1.391c0.23-1.886-5.068-1.959-6.618-4.031  c-1.501-2.006-3.607-4.371-3.607-4.371L468.003,820.041z" />
    <path fill="#1F1C80"
        d="M1230.309,259.101c-0.119-0.587-0.246-1.186-0.549-1.703c-0.705-1.199-2.396-1.692-3.635-1.059  c-0.088,0.045-0.177,0.096-0.275,0.098c-0.299,0.007-0.41-0.377-0.486-0.666c-0.31-1.186-1.536-1.977-2.76-2.062  c-1.223-0.085-2.421,0.417-3.443,1.095c-0.74,0.491-1.478,1.213-1.437,2.1c0.006,0.14,0.03,0.29-0.04,0.411  c-0.053,0.092-0.15,0.148-0.24,0.203c-1.153,0.701-1.94,1.972-2.05,3.317c-0.111,1.344,0.55,4.012,1.573,4.892l10.223,1.868  c1.696-0.191,2.977-1.762,3.37-3.422C1230.955,262.512,1230.647,260.774,1230.309,259.101z" />
    <path fill="#F7C1CE"
        d="M1236.006,294.753l0.633,17.482h-27.275l-2.204-15.855l-1.848-16.76c2.393-1.827,8.599-1.338,14.229-1.36  l0.655-3.347l0.366-1.86h5.358l0.483,2.171l0.716,3.192c3.919-0.294,8.328,0.283,10.47,0.966L1236.006,294.753z" />
    <path fill="#FB78FF"
        d="M1219.539,278.257c-5.629,0.026-11.834-0.462-14.226,1.362l1.844,16.76l2.206,15.857h27.273l-0.633-17.484  l1.587-15.373c-2.148-0.68-6.556-1.259-10.474-0.966C1225.961,283.351,1219.542,282.31,1219.539,278.257z" />
    <path fill="#F7C1CE"
        d="M1251.125,362.977c0.522-5.613-0.428-12.841-1.777-19.17c-1.532-7.173-3.581-13.202-4.608-14.457  c-2.354-2.876-6.801,2.359-21.38,1.527c-14.584,0.833-19.031-4.402-21.385-1.527c-0.988,1.205-2.925,6.84-4.43,13.652  c-1.443,6.518-2.492,14.123-1.948,19.975l1.521,4.957l-19.969,5.208l12.119-10.132c-0.827-3.775-1.743-11.925-1.771-20.68  c-0.039-12.508,1.743-26.232,8.233-30.096c5.829-3.464,27.325-1.171,27.325-1.171s22.101-2.293,27.93,1.171  c6.712,3.992,8.388,18.515,8.227,31.345c-0.105,8.272-0.977,15.839-1.76,19.431l9.648,9.489l-17.503-4.565L1251.125,362.977z" />
    <path fill="#1F1C80"
        d="M1260.572,345.217l-12.491,1.319c-1.532-7.173-3.275-14.776-4.303-16.031  c-2.354-2.876-5.838,1.205-20.417,0.372c-14.584,0.833-16.785-3.248-19.139-0.372c-0.988,1.205-3.457,10.052-4.962,16.863  l-13.324-1.665c-0.039-12.508,3.304-29.604,9.794-33.468c5.829-3.464,27.325-1.171,27.325-1.171s22.101-2.293,27.93,1.171  C1257.698,316.227,1260.733,332.387,1260.572,345.217z" />
    <path fill="#F7C1CE"
        d="M1216.922,302.531c0.016,0.067,0.028,0.139,0.033,0.205c-0.605-0.005-1.21-0.005-1.826-0.011  C1215.978,302.054,1216.738,301.731,1216.922,302.531z" />
    <path fill="#F7C1CE"
        d="M1221.307,302.759c-0.488-0.006-0.983-0.006-1.482-0.011C1220.125,302.32,1220.652,302.414,1221.307,302.759  z" />
    <path fill="#F7C1CE"
        d="M1223.128,302.77c-0.489-0.006-0.994-0.011-1.499-0.011C1222.295,302.409,1222.834,302.32,1223.128,302.77z" />
    <path fill="#F7C1CE"
        d="M1227.886,302.792c-0.611,0-1.249-0.005-1.91-0.011c0.005-0.083,0.022-0.167,0.039-0.25  C1226.204,301.709,1227.009,302.076,1227.886,302.792z" />
    <path fill="#F7C1CE"
        d="M1223.401,304.113c-0.011,1.465-0.606,3.536-1.927,5.13c-1.643,1.982-4.402,3.225-8.533,1.649  c-0.955-0.366-20.741,5.724-24.288-2.637c-0.644-1.521-0.572-3.448-0.011-5.585c2.459-9.36,14.801-22.721,17.155-23.31  c2.898-0.727,1.359,17.02,1.359,17.02s-4.363,3.836-5.196,6.296c-0.155,0.461-0.189,0.872-0.05,1.205  c1.033,2.443,10.476,1.665,10.476,1.665s1.471-1.804,2.743-2.82c0.849-0.672,1.61-0.994,1.793-0.194  c0.016,0.067,0.028,0.139,0.033,0.205c0.177,1.405-1.127,2.787-1.127,2.787c1.072,0.294,2.437-0.539,3.714-1.41  c0.689-0.472,1.349-0.949,1.927-1.272c0.055-0.028,0.111-0.061,0.161-0.083c0.666-0.35,1.205-0.439,1.499,0.011  c0.111,0.161,0.189,0.389,0.233,0.694C1223.389,303.663,1223.401,303.88,1223.401,304.113z" />
    <path fill="#F7C1CE"
        d="M1254.284,308.255c-3.542,8.361-23.333,2.271-24.288,2.637c-4.13,1.577-6.884,0.333-8.522-1.649  c-1.327-1.594-1.921-3.664-1.932-5.13c0-0.233,0.011-0.45,0.039-0.65c0.045-0.322,0.128-0.555,0.244-0.716  c0.3-0.427,0.827-0.333,1.482,0.011c0.056,0.022,0.105,0.05,0.161,0.083c0.578,0.322,1.243,0.805,1.932,1.272  c1.277,0.871,2.637,1.704,3.708,1.41c0,0-1.277-1.355-1.132-2.743c0.005-0.083,0.022-0.167,0.039-0.25  c0.189-0.822,0.994-0.455,1.871,0.261c1.255,1.021,2.665,2.754,2.665,2.754s9.443,0.777,10.481-1.665  c0.122-0.294,0.116-0.638,0.017-1.016c-0.627-2.348-4.969-5.974-4.969-5.974s-1.382-18.237,1.51-17.51  c2.392,0.594,14.601,14.329,16.81,23.7C1254.861,305.051,1254.889,306.833,1254.284,308.255z" />
    <path fill="#FB78FF"
        d="M1208.733,295.53c0,0-5.361,4.747-6.194,7.206c-4.813-0.011-10.814-0.686-14.701-0.675  c5.697-13.055,15.78-21.97,18.058-22.806C1209.771,277.834,1208.733,295.53,1208.733,295.53z" />
    <path fill="#FB78FF"
        d="M1254.401,303.08c-3.931-0.133-9.443-0.194-13.352-0.216c-0.627-2.348-5.98-6.839-5.98-6.839  s-0.371-17.372,2.521-16.645C1239.983,279.974,1252.191,293.709,1254.401,303.08z" />
    <path fill="#E3BABB"
        d="M1226.402,275.222c-0.877,0.328-1.893,0.55-3.003,0.533c-1.394-0.022-2.443-0.388-3.203-0.844l0.366-1.86  h5.358L1226.402,275.222z" />
    <path fill="#F7C1CE"
        d="M1217.986,263.06l0.127,1.898c0,0-2.16-1.676-2.16,0.495s2.108,2.811,2.108,2.811s0.312,6.075,5.224,6.075  c5.788,0,5.163-5.711,5.163-5.711s2.295-2.104,1.662-3.46c-0.633-1.357-2.212,0.13-2.212,0.13c-1.145-3.435-4.937-1.7-7.861-5.101  C1219.3,259.341,1217.986,261.932,1217.986,263.06z" />
    <path fill="#1F1C80"
        d="M1197.119,367.935c0.505-2.122-0.108-4.182-1.558-5.396l-6.292,0.472c-4.199,3.442-10.904,3.841-11.55,9.983  L1197.119,367.935z" />
    <path fill="#1F1C80"
        d="M1249.676,368.091c-0.464-2.122,0.099-4.182,1.43-5.396l6.349,0.316c3.854,3.442,11.549,4.031,11.133,10.589  L1249.676,368.091z" />
    <path fill="#B5BFFF"
        d="M1236.196,290.024h-25.789c-1.978,0-3.582,1.247-3.582,2.784v16.509c0,1.538,1.603,2.784,3.582,2.784h25.789  c1.978,0,3.582-1.247,3.582-2.784v-16.509C1239.778,291.271,1238.175,290.024,1236.196,290.024z" />
    <path fill="#FFF"
        d="M1220.54,302.06c0-1.429,1.159-2.588,2.589-2.588c1.43,0,2.589,1.159,2.589,2.588  c0,1.43-1.159,2.588-2.589,2.588C1221.699,304.648,1220.54,303.49,1220.54,302.06z" />
    <path fill="#EAE8FF"
        d="M1084.791,137.063c-2.346,0-4.561,0.48-6.522,1.33c1.167-2.29,1.815-4.821,1.815-7.481  c0-10.295-9.698-18.64-21.661-18.64c-11.963,0-21.661,8.346-21.661,18.64c0,0.239,0.005,0.477,0.016,0.714  c-1.288-0.46-2.7-0.714-4.182-0.714c-4.79,0-8.859,2.656-10.328,6.349c-0.839-0.13-1.703-0.198-2.585-0.198  c-8.015,0-14.513,5.592-14.513,12.489c0,6.897,6.498,12.489,14.513,12.489c4.693,0,8.865-1.917,11.517-4.89  c2.647,3.044,6.87,5.015,11.628,5.015c3.863,0,7.373-1.299,9.973-3.417c2.6,2.118,6.11,3.417,9.973,3.417  c4.437,0,8.408-1.714,11.07-4.413c2.661,2.628,6.578,4.289,10.946,4.289c8.015,0,14.513-5.592,14.513-12.489  C1099.304,142.655,1092.806,137.063,1084.791,137.063z" />
    <path fill="#EAE8FF"
        d="M156.07,316.897c-2.346,0-4.561,0.48-6.522,1.33c1.167-2.29,1.815-4.82,1.815-7.481  c0-10.295-9.698-18.64-21.661-18.64s-21.661,8.346-21.661,18.64c0,0.239,0.005,0.477,0.016,0.714c-1.288-0.46-2.7-0.714-4.181-0.714  c-4.79,0-8.859,2.656-10.328,6.349c-0.839-0.13-1.703-0.198-2.585-0.198c-8.015,0-14.513,5.592-14.513,12.489  s6.498,12.489,14.513,12.489c4.693,0,8.864-1.917,11.517-4.891c2.647,3.044,6.87,5.015,11.628,5.015  c3.863,0,7.373-1.299,9.973-3.417c2.601,2.118,6.11,3.417,9.973,3.417c4.437,0,8.408-1.714,11.07-4.413  c2.661,2.628,6.578,4.289,10.946,4.289c8.015,0,14.513-5.592,14.513-12.489S164.085,316.897,156.07,316.897z" />
    <path fill="#EAE8FF"
        d="M1326.421,244.336c-2.346,0-4.561,0.48-6.522,1.33c1.167-2.29,1.815-4.82,1.815-7.481  c0-10.295-9.698-18.64-21.661-18.64c-11.963,0-21.661,8.346-21.661,18.64c0,0.239,0.005,0.477,0.016,0.715  c-1.288-0.46-2.7-0.715-4.182-0.715c-4.79,0-8.859,2.656-10.328,6.349c-0.839-0.13-1.703-0.198-2.585-0.198  c-8.015,0-14.513,5.592-14.513,12.489c0,6.897,6.498,12.489,14.513,12.489c4.693,0,8.865-1.917,11.517-4.891  c2.647,3.044,6.87,5.015,11.628,5.015c3.863,0,7.373-1.299,9.973-3.417c2.6,2.118,6.11,3.417,9.973,3.417  c4.437,0,8.408-1.714,11.07-4.413c2.661,2.628,6.578,4.289,10.947,4.289c8.015,0,14.513-5.592,14.513-12.489  C1340.934,249.927,1334.436,244.336,1326.421,244.336z" />
    <path fill="#EAE8FF"
        d="M857.13,217.386c-2.346,0-4.561,0.48-6.522,1.33c1.167-2.29,1.815-4.82,1.815-7.481  c0-10.295-9.698-18.64-21.661-18.64c-11.963,0-21.661,8.346-21.661,18.64c0,0.239,0.005,0.477,0.016,0.715  c-1.288-0.46-2.7-0.715-4.181-0.715c-4.79,0-8.859,2.656-10.328,6.349c-0.839-0.13-1.703-0.198-2.585-0.198  c-8.015,0-14.513,5.592-14.513,12.489c0,6.897,6.498,12.489,14.513,12.489c4.693,0,8.864-1.917,11.517-4.891  c2.647,3.044,6.87,5.015,11.628,5.015c3.863,0,7.373-1.299,9.973-3.417c2.6,2.118,6.11,3.417,9.973,3.417  c4.437,0,8.408-1.714,11.07-4.413c2.661,2.628,6.578,4.289,10.947,4.289c8.015,0,14.513-5.592,14.513-12.489  C871.643,222.977,865.145,217.386,857.13,217.386z" />
    <path fill="#EAE8FF"
        d="M407.544,132.982c-2.346,0-4.561,0.48-6.522,1.33c1.167-2.29,1.815-4.821,1.815-7.481  c0-10.295-9.698-18.64-21.661-18.64c-11.963,0-21.661,8.346-21.661,18.64c0,0.239,0.005,0.477,0.016,0.714  c-1.288-0.46-2.7-0.714-4.181-0.714c-4.79,0-8.859,2.656-10.328,6.349c-0.839-0.13-1.703-0.198-2.585-0.198  c-8.015,0-14.513,5.592-14.513,12.489c0,6.897,6.498,12.489,14.513,12.489c4.693,0,8.864-1.917,11.517-4.891  c2.647,3.044,6.87,5.015,11.628,5.015c3.863,0,7.373-1.299,9.973-3.417c2.6,2.118,6.11,3.417,9.973,3.417  c4.437,0,8.408-1.714,11.07-4.413c2.661,2.628,6.578,4.289,10.947,4.289c8.015,0,14.513-5.592,14.513-12.489  C422.057,138.574,415.56,132.982,407.544,132.982z" />
    <polygon fill="#95A3CC"
        points="90.874 810.773 84.702 810.773 101.572 726.601 107.744 726.601" />
    <polygon fill="#95A3CC"
        points="174.571 810.773 180.743 810.773 163.873 726.601 157.701 726.601" />
    <path fill="#FF6EE0"
        d="M179.983,734.419v8.582c0,0.942-0.763,1.705-1.705,1.705H85.056c-0.287,0-0.559-0.071-0.796-0.198  c-0.541-0.284-0.909-0.853-0.909-1.507v-8.582c0-0.942,0.763-1.705,1.705-1.705h93.223  C179.22,732.714,179.983,733.477,179.983,734.419z" />
    <path fill="#FFF"
        d="M92.236,733.447l-7.228,10.352c-0.532-0.249-0.894-0.749-0.894-1.323v-4.398l3.244-4.632H92.236z" />
    <polygon fill="#FFF" points="104.548 733.447 97.246 743.973 92.283 743.973 99.603 733.447" />
    <polygon fill="#FFF" points="117.023 733.447 109.77 743.973 104.74 743.973 112.014 733.447" />
    <polygon fill="#FFF" points="129.667 733.447 122.461 743.973 117.365 743.973 124.588 733.447" />
    <polygon fill="#FFF" points="142.479 733.447 135.322 743.973 130.156 743.973 137.332 733.447" />
    <polygon fill="#FFF" points="155.467 733.447 148.357 743.973 143.12 743.973 150.249 733.447" />
    <polygon fill="#FFF" points="168.629 733.447 161.568 743.973 156.261 743.973 163.342 733.447" />
    <path fill="#FFF"
        d="M179.221,734.943v1.189l-5.475,7.84h-4.898l7.368-10.526h1.326  C178.47,733.447,179.221,734.117,179.221,734.943z" />
    <path fill="#FF6EE0"
        d="M179.983,752.562v8.582c0,0.942-0.763,1.705-1.705,1.705H85.056c-0.287,0-0.559-0.071-0.796-0.198  c-0.541-0.284-0.909-0.853-0.909-1.507v-8.582c0-0.942,0.763-1.705,1.705-1.705h93.223  C179.22,750.857,179.983,751.62,179.983,752.562z" />
    <path fill="#FFF"
        d="M92.236,751.59l-7.228,10.352c-0.532-0.249-0.894-0.749-0.894-1.323v-4.398l3.244-4.632H92.236z" />
    <polygon fill="#FFF" points="104.548 751.59 97.246 762.116 92.283 762.116 99.603 751.59" />
    <polygon fill="#FFF" points="117.023 751.59 109.77 762.116 104.74 762.116 112.014 751.59" />
    <polygon fill="#FFF" points="129.667 751.59 122.461 762.116 117.365 762.116 124.588 751.59" />
    <polygon fill="#FFF" points="142.479 751.59 135.322 762.116 130.156 762.116 137.332 751.59" />
    <polygon fill="#FFF" points="155.467 751.59 148.357 762.116 143.12 762.116 150.249 751.59" />
    <polygon fill="#FFF" points="168.629 751.59 161.568 762.116 156.261 762.116 163.342 751.59" />
    <path fill="#FFF"
        d="M179.221,753.087v1.19l-5.475,7.84h-4.898l7.368-10.526h1.326C178.47,751.59,179.221,752.26,179.221,753.087  z" />
    <path fill="#FF6EE0"
        d="M179.983,770.706v8.582c0,0.942-0.763,1.705-1.705,1.705H85.056c-0.287,0-0.559-0.071-0.796-0.198  c-0.541-0.284-0.909-0.853-0.909-1.507v-8.582c0-0.942,0.763-1.705,1.705-1.705h93.223  C179.22,769.001,179.983,769.764,179.983,770.706z" />
    <path fill="#FFF"
        d="M92.236,769.733l-7.228,10.352c-0.532-0.249-0.894-0.749-0.894-1.323v-4.398l3.244-4.632H92.236z" />
    <polygon fill="#FFF" points="104.548 769.733 97.246 780.26 92.283 780.26 99.603 769.733" />
    <polygon fill="#FFF" points="117.023 769.733 109.77 780.26 104.74 780.26 112.014 769.733" />
    <polygon fill="#FFF" points="129.667 769.733 122.461 780.26 117.365 780.26 124.588 769.733" />
    <polygon fill="#FFF" points="142.479 769.733 135.322 780.26 130.156 780.26 137.332 769.733" />
    <polygon fill="#FFF" points="155.467 769.733 148.357 780.26 143.12 780.26 150.249 769.733" />
    <polygon fill="#FFF" points="168.629 769.733 161.568 780.26 156.261 780.26 163.342 769.733" />
    <path fill="#FFF"
        d="M179.221,771.23v1.189l-5.475,7.84h-4.898l7.368-10.526h1.326  C178.47,769.733,179.221,770.403,179.221,771.23z" />
    <path fill="#FF6EE0"
        d="M97.591,720.701c0-4.112,3.333-7.445,7.445-7.445c4.112,0,7.445,3.333,7.445,7.445  c0,4.112-3.333,7.445-7.445,7.445C100.925,728.146,97.591,724.813,97.591,720.701z" />
    <path fill="#FAE396"
        d="M100.016,720.701c0-2.773,2.248-5.02,5.02-5.02c2.773,0,5.02,2.248,5.02,5.02c0,2.773-2.248,5.02-5.02,5.02  C102.264,725.721,100.016,723.473,100.016,720.701z" />
    <path fill="#FF6EE0"
        d="M151.867,720.701c0-4.112,3.334-7.445,7.445-7.445c4.112,0,7.445,3.333,7.445,7.445  c0,4.112-3.333,7.445-7.445,7.445C155.201,728.146,151.867,724.813,151.867,720.701z" />
    <path fill="#FAE396"
        d="M154.293,720.701c0-2.773,2.248-5.02,5.02-5.02s5.02,2.248,5.02,5.02c0,2.773-2.248,5.02-5.02,5.02  S154.293,723.473,154.293,720.701z" />
    <rect width="82.605" height="3.056" x="90.051" y="790.925" fill="#95A3CC" />
    <rect width="82.605" height="3.057" x="90.051" y="798.253" fill="#95A3CC" />
    <rect width="14.244" height="2.513" x="80.883" y="810.773" fill="#95A3CC" />
    <rect width="14.244" height="2.513" x="170.554" y="810.773" fill="#95A3CC" />
    <polygon fill="#95A3CC"
        points="1041.571 811.603 1035.4 811.603 1052.269 727.431 1058.441 727.431" />
    <polygon fill="#95A3CC"
        points="1125.268 811.603 1131.44 811.603 1114.57 727.431 1108.398 727.431" />
    <path fill="#FF6EE0"
        d="M1130.681,735.249v8.582c0,0.942-0.763,1.705-1.705,1.705h-93.223c-0.287,0-0.559-0.071-0.796-0.198  c-0.541-0.284-0.909-0.853-0.909-1.507v-8.582c0-0.942,0.763-1.705,1.705-1.705h93.223  C1129.917,733.544,1130.681,734.308,1130.681,735.249z" />
    <path fill="#FFF"
        d="M1042.933,734.277l-7.228,10.352c-0.532-0.249-0.894-0.749-0.894-1.322v-4.398l3.244-4.632H1042.933z" />
    <polygon fill="#FFF"
        points="1055.245 734.277 1047.943 744.803 1042.98 744.803 1050.3 734.277" />
    <polygon fill="#FFF"
        points="1067.72 734.277 1060.467 744.803 1055.438 744.803 1062.712 734.277" />
    <polygon fill="#FFF"
        points="1080.364 734.277 1073.158 744.803 1068.062 744.803 1075.286 734.277" />
    <polygon fill="#FFF"
        points="1093.176 734.277 1086.019 744.803 1080.853 744.803 1088.03 734.277" />
    <polygon fill="#FFF"
        points="1106.164 734.277 1099.054 744.803 1093.818 744.803 1100.947 734.277" />
    <polygon fill="#FFF"
        points="1119.326 734.277 1112.266 744.803 1106.958 744.803 1114.04 734.277" />
    <path fill="#FFF"
        d="M1129.918,735.774v1.189l-5.475,7.84h-4.898l7.369-10.526h1.326  C1129.167,734.277,1129.918,734.947,1129.918,735.774z" />
    <path fill="#FF6EE0"
        d="M1130.681,753.393v8.582c0,0.942-0.763,1.705-1.705,1.705h-93.223c-0.287,0-0.559-0.071-0.796-0.198  c-0.541-0.284-0.909-0.853-0.909-1.507v-8.582c0-0.942,0.763-1.705,1.705-1.705h93.223  C1129.917,751.688,1130.681,752.451,1130.681,753.393z" />
    <path fill="#FFF"
        d="M1042.933,752.42l-7.228,10.352c-0.532-0.249-0.894-0.749-0.894-1.322v-4.398l3.244-4.632H1042.933z" />
    <polygon fill="#FFF" points="1055.245 752.42 1047.943 762.947 1042.98 762.947 1050.3 752.42" />
    <polygon fill="#FFF"
        points="1067.72 752.42 1060.467 762.947 1055.438 762.947 1062.712 752.42" />
    <polygon fill="#FFF"
        points="1080.364 752.42 1073.158 762.947 1068.062 762.947 1075.286 752.42" />
    <polygon fill="#FFF"
        points="1093.176 752.42 1086.019 762.947 1080.853 762.947 1088.03 752.42" />
    <polygon fill="#FFF"
        points="1106.164 752.42 1099.054 762.947 1093.818 762.947 1100.947 752.42" />
    <polygon fill="#FFF"
        points="1119.326 752.42 1112.266 762.947 1106.958 762.947 1114.04 752.42" />
    <path fill="#FFF"
        d="M1129.918,753.917v1.189l-5.475,7.84h-4.898l7.369-10.526h1.326  C1129.167,752.42,1129.918,753.09,1129.918,753.917z" />
    <path fill="#FF6EE0"
        d="M1130.681,771.536v8.582c0,0.942-0.763,1.705-1.705,1.705h-93.223c-0.287,0-0.559-0.071-0.796-0.198  c-0.541-0.284-0.909-0.853-0.909-1.507v-8.582c0-0.942,0.763-1.705,1.705-1.705h93.223  C1129.917,769.831,1130.681,770.594,1130.681,771.536z" />
    <path fill="#FFF"
        d="M1042.933,770.563l-7.228,10.352c-0.532-0.249-0.894-0.749-0.894-1.323v-4.398l3.244-4.632H1042.933z" />
    <polygon fill="#FFF" points="1055.245 770.563 1047.943 781.09 1042.98 781.09 1050.3 770.563" />
    <polygon fill="#FFF"
        points="1067.72 770.563 1060.467 781.09 1055.438 781.09 1062.712 770.563" />
    <polygon fill="#FFF"
        points="1080.364 770.563 1073.158 781.09 1068.062 781.09 1075.286 770.563" />
    <polygon fill="#FFF"
        points="1093.176 770.563 1086.019 781.09 1080.853 781.09 1088.03 770.563" />
    <polygon fill="#FFF"
        points="1106.164 770.563 1099.054 781.09 1093.818 781.09 1100.947 770.563" />
    <polygon fill="#FFF"
        points="1119.326 770.563 1112.266 781.09 1106.958 781.09 1114.04 770.563" />
    <path fill="#FFF"
        d="M1129.918,772.06v1.189l-5.475,7.84h-4.898l7.369-10.526h1.326  C1129.167,770.563,1129.918,771.233,1129.918,772.06z" />
    <path fill="#FF6EE0"
        d="M1048.289,721.531c0-4.112,3.333-7.445,7.445-7.445s7.445,3.333,7.445,7.445  c0,4.112-3.333,7.445-7.445,7.445S1048.289,725.643,1048.289,721.531z" />
    <circle cx="1055.734" cy="721.531" r="5.02" fill="#FAE396" />
    <path fill="#FF6EE0"
        d="M1102.565,721.531c0-4.112,3.333-7.445,7.445-7.445c4.112,0,7.445,3.333,7.445,7.445  c0,4.112-3.333,7.445-7.445,7.445C1105.898,728.976,1102.565,725.643,1102.565,721.531z" />
    <path fill="#FAE396"
        d="M1104.99,721.531c0-2.773,2.248-5.02,5.02-5.02c2.772,0,5.02,2.248,5.02,5.02c0,2.773-2.248,5.02-5.02,5.02  C1107.237,726.551,1104.99,724.304,1104.99,721.531z" />
    <rect width="82.605" height="3.057" x="1040.748" y="791.756" fill="#95A3CC" />
    <rect width="82.605" height="3.057" x="1040.748" y="799.083" fill="#95A3CC" />
    <rect width="14.244" height="2.513" x="1031.58" y="811.603" fill="#95A3CC" />
    <rect width="14.244" height="2.513" x="1121.252" y="811.603" fill="#95A3CC" />
    <path fill="#FF6EE0"
        d="M243.237,810.428H210.39l0.785-2.25l0.423-1.213l1.427-4.086l0.836-2.402l1.427-4.086l1.442-4.136  l0.488-1.399l3.997-11.458l0.782-2.241l1.138-3.261c1.216-3.483,6.136-3.483,7.352,0l1.138,3.261l0.782,2.241l3.997,11.458  l0.488,1.399l1.442,4.136l1.427,4.086l0.838,2.402l1.426,4.086l0.424,1.213L243.237,810.428z" />
    <polygon fill="#FFF" points="238.555 806.965 211.598 806.965 213.026 802.879 237.13 802.879" />
    <polygon fill="#FFF" points="236.292 800.476 213.862 800.476 215.289 796.39 234.864 796.39" />
    <polygon fill="#FFF" points="232.934 790.856 217.22 790.856 221.217 779.399 228.937 779.399" />
    <polygon fill="#F0F0F0"
        points="239.764 800.476 236.292 800.476 234.864 796.39 238.337 796.39" />
    <polygon fill="#F0F0F0"
        points="236.406 790.856 232.934 790.856 228.937 779.399 232.409 779.399" />
    <path fill="#EB57CB"
        d="M231.627,777.157l0.782,2.241h-3.473l-0.782-2.241l-1.138-3.261c-0.372-1.064-1.09-1.8-1.94-2.214  c1.937-0.942,4.567-0.205,5.412,2.214L231.627,777.157z" />
    <polygon fill="#EB57CB"
        points="238.337 796.39 234.864 796.39 233.422 792.255 232.934 790.856 236.406 790.856 236.895 792.255" />
    <polygon fill="#F0F0F0"
        points="242.028 806.965 238.555 806.965 237.13 802.879 240.602 802.879" />
    <polygon fill="#EB57CB"
        points="240.602 802.879 237.13 802.879 236.292 800.476 239.764 800.476" />
    <polygon fill="#EB57CB"
        points="243.237 810.428 239.764 810.428 238.555 806.965 242.028 806.965" />
    <polygon fill="#EB57CB"
        points="243.237 810.428 210.39 810.428 211.175 808.178 242.452 808.178" />
    <path fill="#FF6EE0"
        d="M244.746,813.623h-35.865c-1.612,0-2.919-0.953-2.919-2.128l0,0c0-1.175,1.307-2.128,2.919-2.128h35.865  c1.612,0,2.919,0.953,2.919,2.128l0,0C247.665,812.671,246.358,813.623,244.746,813.623z" />
    <path fill="#EB57CB"
        d="M247.026,810.169c0.004,0.046,0.009,0.091,0.009,0.137c0,1.175-1.307,2.128-2.919,2.128h-35.865  c-0.924,0-1.746-0.314-2.281-0.802c0.097,1.111,1.361,1.991,2.91,1.991h35.865c1.612,0,2.919-0.953,2.919-2.128  C247.665,810.993,247.425,810.533,247.026,810.169z" />
    <path fill="#FF6EE0"
        d="M716.386,822.698h-32.847l0.785-2.25l0.423-1.213l1.427-4.086l0.836-2.402l1.427-4.086l1.442-4.136  l0.488-1.399l3.997-11.458l0.782-2.241l1.138-3.261c1.216-3.483,6.136-3.483,7.352,0l1.138,3.261l0.782,2.241l3.997,11.458  l0.488,1.399l1.442,4.136l1.427,4.086l0.838,2.402l1.426,4.086l0.424,1.213L716.386,822.698z" />
    <polygon fill="#FFF" points="711.705 819.234 684.748 819.234 686.175 815.148 710.279 815.148" />
    <polygon fill="#FFF" points="709.441 812.746 687.012 812.746 688.439 808.66 708.014 808.66" />
    <polygon fill="#FFF" points="706.083 803.126 690.37 803.126 694.367 791.668 702.086 791.668" />
    <polygon fill="#F0F0F0"
        points="712.914 812.746 709.441 812.746 708.014 808.66 711.487 808.66" />
    <polygon fill="#F0F0F0"
        points="709.556 803.126 706.083 803.126 702.086 791.668 705.559 791.668" />
    <path fill="#EB57CB"
        d="M704.777,789.427l0.782,2.241h-3.473l-0.782-2.241l-1.138-3.261c-0.372-1.064-1.09-1.8-1.94-2.214  c1.937-0.942,4.567-0.205,5.412,2.214L704.777,789.427z" />
    <polygon fill="#EB57CB"
        points="711.487 808.66 708.014 808.66 706.572 804.524 706.083 803.126 709.556 803.126 710.044 804.524" />
    <polygon fill="#F0F0F0"
        points="715.178 819.234 711.705 819.234 710.279 815.148 713.752 815.148" />
    <polygon fill="#EB57CB"
        points="713.752 815.148 710.279 815.148 709.441 812.746 712.914 812.746" />
    <polygon fill="#EB57CB"
        points="716.386 822.698 712.914 822.698 711.705 819.234 715.178 819.234" />
    <polygon fill="#EB57CB"
        points="716.386 822.698 683.539 822.698 684.324 820.447 715.601 820.447" />
    <path fill="#FF6EE0"
        d="M717.895,825.893H682.03c-1.612,0-2.919-0.953-2.919-2.128l0,0c0-1.175,1.307-2.128,2.919-2.128h35.865  c1.612,0,2.919,0.953,2.919,2.128l0,0C720.814,824.94,719.507,825.893,717.895,825.893z" />
    <path fill="#EB57CB"
        d="M720.176,822.438c0.004,0.046,0.009,0.091,0.009,0.137c0,1.175-1.307,2.128-2.919,2.128h-35.865  c-0.924,0-1.746-0.314-2.281-0.802c0.097,1.111,1.361,1.991,2.91,1.991h35.865c1.612,0,2.919-0.953,2.919-2.128  C720.814,823.263,720.575,822.802,720.176,822.438z" />
    <path fill="#FF6EE0"
        d="M1234.505,792.462h-32.847l0.785-2.25l0.423-1.213l1.427-4.086l0.836-2.402l1.427-4.086l1.442-4.136  l0.488-1.399l3.997-11.457l0.782-2.241l1.138-3.261c1.216-3.483,6.136-3.483,7.352,0l1.138,3.261l0.782,2.241l3.997,11.457  l0.488,1.399l1.442,4.136l1.427,4.086l0.838,2.402l1.426,4.086l0.424,1.213L1234.505,792.462z" />
    <polygon fill="#FFF"
        points="1229.824 788.999 1202.867 788.999 1204.294 784.913 1228.398 784.913" />
    <polygon fill="#FFF"
        points="1227.56 782.51 1205.131 782.51 1206.558 778.424 1226.133 778.424" />
    <polygon fill="#FFF"
        points="1224.202 772.89 1208.489 772.89 1212.486 761.433 1220.205 761.433" />
    <polygon fill="#F0F0F0"
        points="1231.033 782.51 1227.56 782.51 1226.133 778.424 1229.605 778.424" />
    <polygon fill="#F0F0F0"
        points="1227.675 772.89 1224.202 772.89 1220.205 761.433 1223.678 761.433" />
    <path fill="#EB57CB"
        d="M1222.896,759.191l0.782,2.241h-3.472l-0.782-2.241l-1.138-3.261c-0.372-1.064-1.09-1.799-1.94-2.214  c1.937-0.942,4.567-0.205,5.412,2.214L1222.896,759.191z" />
    <polygon fill="#EB57CB"
        points="1229.605 778.424 1226.133 778.424 1224.691 774.289 1224.202 772.89 1227.675 772.89 1228.163 774.289" />
    <polygon fill="#F0F0F0"
        points="1233.297 788.999 1229.824 788.999 1228.398 784.913 1231.871 784.913" />
    <polygon fill="#EB57CB"
        points="1231.871 784.913 1228.398 784.913 1227.56 782.51 1231.033 782.51" />
    <polygon fill="#EB57CB"
        points="1234.505 792.462 1231.033 792.462 1229.824 788.999 1233.297 788.999" />
    <polygon fill="#EB57CB"
        points="1234.505 792.462 1201.658 792.462 1202.443 790.212 1233.72 790.212" />
    <path fill="#FF6EE0"
        d="M1236.014,795.658h-35.865c-1.612,0-2.919-0.953-2.919-2.128l0,0c0-1.175,1.307-2.128,2.919-2.128h35.865  c1.612,0,2.919,0.953,2.919,2.128l0,0C1238.933,794.705,1237.626,795.658,1236.014,795.658z" />
    <path fill="#EB57CB"
        d="M1238.295,792.203c0.004,0.046,0.01,0.091,0.01,0.137c0,1.176-1.307,2.128-2.919,2.128h-35.865  c-0.924,0-1.746-0.314-2.281-0.802c0.097,1.111,1.361,1.991,2.91,1.991h35.865c1.612,0,2.919-0.953,2.919-2.128  C1238.933,793.027,1238.693,792.567,1238.295,792.203z" />
    <path fill="#45359E"
        d="M1316.182,529.285c0,0-5.165-3.763-1.771-9.297c3.394-5.534,10.92-3.984,12.335-1.082  c2.792-0.467,4.97,1.406,6.186,3.148c0.959,1.374,2.103,4.132,0.701,9.518c-1.402,5.386,6.296,8.46,7.342,12.1  c0.672,2.341-0.369,4.87-5.128,5.423c-4.759,0.553-17.488-4.611-17.488-4.611C1316.849,544.481,1311.218,538.871,1316.182,529.285z" />
    <path fill="#E3C0C1"
        d="M1279.562,654.474c2.218-11.239,3.429-20.428,3.121-28.524c-0.219-5.938-0.806-11.388-1.283-16.868  l34.434-19.712l10.941-6.266h-20.967c0,0-29.909,9.697-34.981,18.151c-3.411,5.689-2.705,18.509-1.104,30.136  c1.691,12.193,4.377,23.084,4.377,23.084H1279.562z" />
    <path fill="#3C2E8F"
        d="M1279.647,654.225l1.765,5.773l-1.105,8.972l-1.777,0.086l-1.62-7.855l-2.869,5.215  c-0.773,1.404-1.932,2.553-3.521,2.759c-4.192,0.544-12.384,0.685-12.724-2.066c-0.349-2.827,7.592-2.948,9.911-6.056  c2.246-3.01,4.946-6.947,4.946-6.947L1279.647,654.225z" />
    <path fill="#3C2E8F"
        d="M1269.722,631.39l7.132,1.173l5.828-6.614l25.741-29.191l7.41-7.39l6.276-6.266h-16.302  c0,0-29.909,9.697-34.981,18.151C1267.415,606.944,1268.121,619.763,1269.722,631.39z" />
    <path fill="#F7C1CE"
        d="M1273.376,654.808c6.266-5.371,10.43-12.179,13.682-19.927c2.108-5.023,3.75-10.413,5.122-16.012  c0,0,31.908-2.695,40.303-14.909c5.719-8.325,1.134-20.856,1.134-20.856c-5.45,0.169-12.602-1.024-17.118,0.438  c-17.018,5.5-35.29,12.75-39.536,24.526c-2.507,6.952-4.237,14.64-5.968,23.164c-1.432,7.041-2.723,15.224-4.613,23.459  L1273.376,654.808z" />
    <path fill="#45359E"
        d="M1270.995,631.231l10.643,2.417l5.421,1.233c2.108-5.023,3.75-10.413,5.122-16.012  c0,0,18.789-1.591,31.321-7.837c3.8-1.9,7.032-4.227,8.982-7.071c5.231-7.619,1.84-18.768,1.223-20.598  c-0.06-0.169-0.09-0.259-0.09-0.259h-0.04c-5.451,0.159-13.209-1.542-17.714-0.08c-17.018,5.5-35.469,13.029-39.716,24.805  C1273.631,614.781,1272.726,622.707,1270.995,631.231z" />
    <path fill="#8778FF"
        d="M1312.944,561.031c-3.582,4.328-9.984,9.345-13.651,13.601c-1.807-1.567-3.913-2.343-5.426-4.34  c6.16-9.341,13.014-18.773,20.885-26.784C1313.284,549.603,1314.656,555.024,1312.944,561.031z" />
    <path fill="#5F4AFF"
        d="M1304.296,583.611c8.435-1.124,15.357,2.377,23.951,1.71c1.034-0.08,2.099-0.219,3.183-0.427  c1.999-0.398,3.392-2.228,3.183-4.257l-2.834-27.649l-2.497-8.504l-0.577-1.949l-4.47-2.397l-4.916,0.17  c-7.331,3.183-12.386,11.796-7.94,21.314C1315.695,570.871,1304.296,583.611,1304.296,583.611z" />
    <path fill="#F7C1CE"
        d="M1319.103,540.383c0,2.782,2.584,2.782,5.175,0l-0.608-3.363l-0.376-2.092l-3.897,1.948l-0.287,3.432  L1319.103,540.383z" />
    <path fill="#F7C1CE"
        d="M1302.059,574.14c2.238,3.404,3.606,2.791,6.605,2.972c3.907-0.224,8.097,0.377,12.047,0.068  c4.765-0.372,11.772,1.167,15.65-1.998c3.877-3.166-1.036-18.787-2.181-22.302c-1.521-4.666-3.225-6.7-5.466-10.392  c1.005,3.577,2.01,6.992,3.016,10.506c-0.631,5.441-1.162,10.911-1.724,16.351c-3.852,0.52-6.747,0.863-10.814,1.554  c-3.59,0.61-8.49,1.447-12.228,2.468C1303.667,571.574,1299.821,570.737,1302.059,574.14z" />
    <path fill="#8778FF"
        d="M1319.06,570.419c0.402,2.174,1.134,5.073,1.697,7.331c5.04,0.236,11.105,1.23,15.805-2.725  c4.699-3.956,1.536-19.979-0.363-24.362c-2.038-4.705-3.738-6.204-7.5-8.193c-7.198,7.237,0.363,17.288,1.286,26.882  C1326.421,569.805,1322.608,569.842,1319.06,570.419z" />
    <path fill="#F7C1CE"
        d="M1316.098,522.27c0,0,1.976,4.186,8.608,5.739c0,0,2.07-2.258,2.964-0.847  c0.894,1.411-1.27,3.904-1.27,3.904c-0.248,4.1-3.199,7.353-6.256,6.585C1313.191,535.904,1316.098,522.27,1316.098,522.27z" />
    <path fill="#45359E"
        d="M1273.376,654.808l1.765,5.773l-1.105,8.972l-1.777,0.087l-1.62-7.855l-2.869,5.215  c-0.772,1.404-1.932,2.553-3.521,2.759c-4.192,0.543-12.384,0.685-12.724-2.066c-0.349-2.827,7.592-2.948,9.911-6.056  c2.246-3.01,4.945-6.947,4.945-6.947L1273.376,654.808z" />
    <path fill="#FC91FF"
        d="M1313.735,586.943l-5.819-17.47c-0.596-1.072-1.727-1.738-2.954-1.738h-26.002  c-2.445,0-4.081,2.517-3.088,4.751l6.762,15.214c0.584,1.314,1.886,2.16,3.324,2.16h25.674  C1313.145,589.86,1314.213,588.379,1313.735,586.943z" />
    <circle cx="1293.703" cy="579.959" r="2.468" fill="#FFF" />
</svg>